<?xml version="1.0" encoding="utf-8"?>
<!-- Generator: Adobe Illustrator 26.1.0, SVG Export Plug-In . SVG Version: 6.00 Build 0)  -->
<svg version="1.1" id="Layer_1" xmlns="http://www.w3.org/2000/svg" xmlns:xlink="http://www.w3.org/1999/xlink" x="0px" y="0px"
	 viewBox="0 0 1296 581.63" style="enable-background:new 0 0 1296 581.63;" xml:space="preserve">
<style type="text/css">
	.st0{fill:url(#SVGID_1_);}
	.st1{fill:#EAF2FF;}
	.st2{opacity:0.43;fill:#FFFFFF;}
</style>
<g>
	<g>
		<linearGradient id="SVGID_1_" gradientUnits="userSpaceOnUse" x1="640.4362" y1="22.0619" x2="640.4362" y2="573.8115">
			<stop  offset="0" style="stop-color:#E8F1F3"/>
			<stop  offset="2.077838e-07" style="stop-color:#D5E5E9"/>
			<stop  offset="0.4966" style="stop-color:#BCD5DB"/>
			<stop  offset="0.9659" style="stop-color:#ABCBD2"/>
		</linearGradient>
		<path class="st0" d="M9.11,550.21c9.93-48.73,19.86-97.46,29.79-146.19c44.01-58.11,112.75-127.93,204.22-136.98
			c145.27-14.37,195.96,157.39,383.45,175.01c129.22,12.15,256.49-53.36,314.87-139.31c15.16-22.32,54.15-79.72,35.74-140
			c-2.43-7.95-13.87-42.22-47.66-62.55c-40.69-24.49-97.03-18.69-142.98,14.89C890.4,8.3,1051.65-6.94,1160.69,71.39
			c95.23,68.41,128.72,194.04,102.41,293.35c-31.62,119.33-142.1,205.7-271.11,209.07C664.37,565.95,336.74,558.08,9.11,550.21z"/>
		<path class="st1" d="M820.53,292.05c-2.25-2.37-5.39-5.92-8.66-10.47c-4.5-6.26-11.14-15.7-12.98-27.91
			c-1.23-8.18,1.45-7.13,0-13.96c-3.28-15.49-16.32-21.78-12.98-27.91c2.82-5.18,12.81-1.93,17.31-6.98
			c8.34-9.34-20.23-26.89-17.31-52.33c1.22-10.61,7.75-21.19,13.11-21.14c6.22,0.06,8.62,14.42,12.86,14.16
			c6.38-0.4,0.19-32.83,21.64-62.8c3.16-4.41,9.9-12.92,21.64-20.93c10.37-7.08,21.68-14.8,34.62-13.96
			c20.66,1.35,29.6,23.51,38.95,20.93c7.74-2.14,1.26-17.23,12.98-27.91c10.44-9.51,32.87-13.31,47.6-6.98
			c24.06,10.34,20.23,44.52,34.62,45.36c5.83,0.34,11.05-5,12.98-6.98c9.19-9.39,2.6-18.99,8.66-24.42
			c7.25-6.5,29.48-4.22,43.28,3.49c41.85,23.37,17.2,102.82,30.29,104.67c8.53,1.2,13.46-32.74,38.95-38.38
			c23.06-5.1,49.2,16.13,60.59,27.91c16.42,17,16.07,36.96,17.31,62.8c1.52,31.8-4.64,54.94,0,55.82
			c4.16,0.79,10.61-21.84,17.31-20.93c8.01,1.08,9.48,35.29,9.76,41.64c1.1,25.62-1.85,46.63-5.96,68.51
			c-3.64,19.37-9.2,44.82-17.87,74.47c21.23-51.88,28.2-72.53,29.79-80.43c2.13-10.5,2.98-14.89,2.98-14.89
			c1.39-7.17,1.87-9.97,2.98-14.89c1.27-5.64,2.32-9.43,2.98-11.91c0,0,2.9-10.96,5.64-27.6c1.93-11.71,6.08-36.64,0.47-66.5
			c-1.85-9.85-4.76-20.3-9.13-31.19c-16.45-40.94-45.5-66.81-64.92-83.73c-31.49-27.45-62.21-42.62-82.23-52.33
			c-28.05-13.62-54.5-26.46-93.93-32.88c-11.96-1.95-48.4-7.09-94.36,0c-25.49,3.94-83.93,12.95-127.63,53.82
			c-29.28,27.38-38.24,56.23-43.28,73.27c-5.43,18.36-14.33,50.26,0,87.22c12.33,31.78,35.06,52.2,43.28,59.31
			C815.36,288.09,818.39,290.45,820.53,292.05z"/>
	</g>
	<path class="st2" d="M991.69,181.97c4.3,65.39-5.51,91.1-16.19,101.98c-1.12,1.14-3.94,3.85-7.64,8.23
		c-13.74,16.29-20.37,33.04-23.83,44.68c10.92-6.54,29.38-19.87,42.29-43.35c13.08-23.8,13.98-45.69,14.31-57.92
		C1001.26,211.91,995.82,193.1,991.69,181.97z"/>
	<path class="st2" d="M988.91,157.65c33.8,83.84,29.68,118.78,17.67,134.53c-3.12,4.09-12.97,15.01-17.87,32.77
		c-5.9,21.36,2.66,26.2-2.98,38.72c-9.13,20.29-34.57,14.23-68.51,41.7c-11.08,8.97-11.02,11.77-20.85,20.85
		c-15.93,14.73-42.36,31.68-87.89,39.16c17.84,0.94,80.8,2.09,138.53-42.14c12.17-9.32,51.01-39.94,68.51-95.32
		C1042.57,242.31,996.11,168.65,988.91,157.65z"/>
	<path class="st2" d="M1049.25,216.74c33.8,83.84,29.68,118.78,17.67,134.53c-3.12,4.09-12.97,15.01-17.87,32.77
		c-5.9,21.36,2.66,26.2-2.98,38.72c-9.13,20.29-34.57,14.23-68.51,41.7c-11.08,8.97-11.02,11.77-20.85,20.85
		c-15.93,14.73-42.36,31.68-87.89,39.16c17.84,0.94,80.8,2.09,138.53-42.14c12.17-9.32,51.01-39.94,68.51-95.32
		C1102.91,301.4,1056.44,227.74,1049.25,216.74z"/>
</g>
</svg>
