<?xml version="1.0" encoding="utf-8"?>
<!-- Generator: Adobe Illustrator 26.1.0, SVG Export Plug-In . SVG Version: 6.00 Build 0)  -->
<svg version="1.1" id="Layer_1" xmlns="http://www.w3.org/2000/svg" xmlns:xlink="http://www.w3.org/1999/xlink" x="0px" y="0px"
	 viewBox="0 0 72 72" style="enable-background:new 0 0 72 72;" xml:space="preserve">
<style type="text/css">
	.st0{opacity:0.58;fill:#FFFFFF;enable-background:new    ;}
	.st1{clip-path:url(#SVGID_00000067946516072864243470000005062758604311965621_);}
	.st2{fill:#57B6CA;}
</style>
<g id="Group_36" transform="translate(-20 -19)">
	<path id="Rectangle_16" class="st0" d="M40,20h32c10.49,0,19,8.51,19,19v32c0,10.49-8.51,19-19,19H40c-10.49,0-19-8.51-19-19V39
		C21,28.51,29.51,20,40,20z"/>
	<g id="Group_35" transform="translate(29.256 29.882)">
		<g>
			<defs>
				<rect id="SVGID_1_" x="1" y="1" width="51.49" height="48.12"/>
			</defs>
			<clipPath id="SVGID_00000000922798878431468560000012936678225856513970_">
				<use xlink:href="#SVGID_1_"  style="overflow:visible;"/>
			</clipPath>
			
				<g id="Group_34" transform="translate(0 0)" style="clip-path:url(#SVGID_00000000922798878431468560000012936678225856513970_);">
				<path id="Path_97" class="st2" d="M4.37,42.39C2.51,42.39,1,43.89,1,45.75c0,1.86,1.51,3.37,3.37,3.37s3.37-1.51,3.37-3.37
					S6.22,42.39,4.37,42.39C4.37,42.39,4.37,42.39,4.37,42.39"/>
				<path id="Path_98" class="st2" d="M18.48,25.51c-4.17,0-7.55,3.38-7.55,7.55c0,4.17,3.38,7.55,7.55,7.55
					c4.17,0,7.55-3.38,7.55-7.55l0,0C26.03,28.9,22.65,25.51,18.48,25.51"/>
				<path id="Path_99" class="st2" d="M40.1,1c-6.84,0-12.39,5.55-12.39,12.39s5.55,12.39,12.39,12.39
					c6.84,0,12.39-5.55,12.39-12.39C52.49,6.55,46.94,1,40.1,1C40.1,1,40.1,1,40.1,1"/>
			</g>
		</g>
	</g>
</g>
</svg>
