<?xml version="1.0" encoding="utf-8"?>
<!-- Generator: Adobe Illustrator 26.1.0, SVG Export Plug-In . SVG Version: 6.00 Build 0)  -->
<svg version="1.1" id="Layer_1" xmlns="http://www.w3.org/2000/svg" xmlns:xlink="http://www.w3.org/1999/xlink" x="0px" y="0px"
	 viewBox="0 0 1333 97" style="enable-background:new 0 0 1333 97;" xml:space="preserve">
<style type="text/css">
	.st0{fill:url(#SVGID_1_);}
	.st1{fill:#EAF2FF;}
	.st2{fill:url(#SVGID_00000008845435272031755880000005410904693851112878_);}
	.st3{fill:url(#SVGID_00000163754736625474026410000004636749129598109621_);}
	.st4{fill:url(#SVGID_00000021096581621292322360000009015114674899976868_);}
	.st5{fill:url(#SVGID_00000019648721766762353080000012970578388032652202_);}
	.st6{fill:url(#SVGID_00000156566827911384166300000011235496212594839946_);}
	.st7{fill:url(#SVGID_00000078764105465034749450000000913669843896155825_);}
	.st8{opacity:0.43;fill:#FFFFFF;enable-background:new    ;}
	.st9{fill:#0071BC;}
</style>
<g id="Group_12" transform="translate(-59.987 -938.634)">
	<g id="Group_10" transform="translate(1339.976 938.634)">
		<linearGradient id="SVGID_1_" gradientUnits="userSpaceOnUse" x1="-172.209" y1="97" x2="-172.209" y2="2.934">
			<stop  offset="0" style="stop-color:#E8F1F3"/>
			<stop  offset="0" style="stop-color:#D5E5E9"/>
			<stop  offset="0.497" style="stop-color:#BCD5DB"/>
			<stop  offset="0.966" style="stop-color:#ABCBD2"/>
		</linearGradient>
		<path class="st0" d="M52.15,97h-448.72c0.07-0.35,0.14-0.71,0.21-1.06c0.11-0.52,0.21-1.05,0.32-1.57
			c0.93-4.57,1.86-9.15,2.8-13.72c0.31-1.52,0.62-3.04,0.93-4.56c1.27-1.68,2.65-3.4,4.13-5.13c2-2.34,4.2-4.69,6.59-6.91
			c1.72-1.62,3.55-3.18,5.47-4.63c3.08-2.33,6.42-4.41,10.01-6.03c0.38-0.18,0.77-0.35,1.16-0.5c3.67-1.55,7.59-2.63,11.75-3.04
			c8.74-0.86,15.7,1.79,22.24,5.95c0.56,0.35,1.11,0.72,1.66,1.09c0.56,0.38,1.11,0.76,1.66,1.16
			c12.95,9.26,25.18,23.19,47.88,25.32c24.74,2.33,49.12-10.22,60.3-26.68c2.91-4.27,10.37-15.27,6.85-26.81
			c-0.46-1.53-2.66-8.09-9.13-11.98c-5.61-3.38-12.79-3.75-19.65-1.28c-2.66,0.95-5.28,2.33-7.73,4.13
			c3.94-4.05,8.31-7.42,12.96-10.09c0,0,0-0.01,0.01,0c1.72-0.99,3.46-1.89,5.25-2.69c17.7-7.93,38.22-6.52,53.43,4.41
			c18.24,13.1,24.65,37.16,19.61,56.18c-0.02,0.07-0.02,0.19,0.01,0.36v0.01c0.34,2.91,6.77,19.04,24.64,19.04
			c18.9,0,42.08-21.44,56.78-19.41c10.63,1.47,19.66,17.95,41.5,14.81C-16.49,80.72,36.18,93.08,52.15,97z"/>
		<path id="Path_23" class="st1" d="M-242.61,55.64c-0.6-0.63-1.15-1.3-1.66-2c-1.25-1.55-2.1-3.39-2.49-5.35
			c-0.23-1.57,0.28-1.36,0-2.68c-0.63-2.97-3.13-4.17-2.49-5.35c0.54-0.99,2.45-0.37,3.31-1.33c1.6-1.79-3.87-5.15-3.31-10.02
			c0.23-2.03,1.48-4.06,2.51-4.05c1.19,0.01,1.65,2.76,2.46,2.71c1.22-0.07,0.03-6.29,4.14-12.03c1.13-1.57,2.54-2.93,4.14-4.01
			c1.99-1.36,4.15-2.84,6.63-2.68c3.95,0.26,5.67,4.5,7.46,4.01c1.48-0.41,0.24-3.3,2.49-5.35c2-1.82,6.29-2.55,9.12-1.33
			c4.61,1.98,3.87,8.53,6.63,8.69c1.12,0.06,2.12-0.96,2.49-1.33c1.76-1.8,0.5-3.63,1.66-4.68c1.39-1.24,5.65-0.81,8.29,0.67
			c8.02,4.48,3.29,19.69,5.8,20.05c1.63,0.23,2.58-6.27,7.46-7.35c4.42-0.98,9.42,3.09,11.6,5.35c3.14,3.26,3.08,7.08,3.31,12.03
			c0.29,6.09-0.89,10.52,0,10.69c0.8,0.15,2.03-4.18,3.31-4.01c1.53,0.21,1.81,6.76,1.87,7.98c0.15,4.4-0.24,8.81-1.14,13.12
			c-0.7,3.71-1.76,8.59-3.42,14.26c4.07-9.94,5.4-13.89,5.7-15.4c0.41-2.01,0.57-2.85,0.57-2.85c0.27-1.38,0.36-1.91,0.57-2.85
			c0.25-1.08,0.45-1.8,0.57-2.28c0,0,0.55-2.1,1.08-5.29c0.8-4.2,0.83-8.52,0.09-12.73c-0.39-2.04-0.97-4.04-1.75-5.97
			c-3.15-7.84-8.72-12.8-12.43-16.04c-4.76-4.05-10.06-7.42-15.75-10.03c-5.37-2.61-10.44-5.07-17.98-6.3
			c-5.99-0.93-12.08-0.93-18.07,0c-4.88,0.75-16.08,2.48-24.45,10.31c-4.04,3.8-6.92,8.66-8.29,14.03c-1.04,3.51-2.74,9.62,0,16.7
			c1.81,4.4,4.65,8.3,8.29,11.36C-243.6,54.89-243.02,55.34-242.61,55.64z"/>
	</g>
	<g id="Group_4" transform="translate(1088.786 942.612)">
		
			<linearGradient id="SVGID_00000039096397339626563510000009378424574249669284_" gradientUnits="userSpaceOnUse" x1="-198.0058" y1="93.022" x2="-198.0058" y2="1.6918">
			<stop  offset="0" style="stop-color:#E8F1F3"/>
			<stop  offset="0" style="stop-color:#D5E5E9"/>
			<stop  offset="0.497" style="stop-color:#BCD5DB"/>
			<stop  offset="0.966" style="stop-color:#ABCBD2"/>
		</linearGradient>
		<path style="fill:url(#SVGID_00000039096397339626563510000009378424574249669284_);" d="M-79.75,67.32
			c-0.15,0.57-0.31,1.14-0.48,1.7c-0.01,0.02-0.02,0.06-0.03,0.09c-0.77,2.54-1.73,4.99-2.86,7.35c-0.02,0.03-0.03,0.06-0.05,0.1
			c-0.25,0.52-0.51,1.04-0.78,1.55l-0.01,0.01c-2.94,5.64-6.89,10.66-11.59,14.9h-222.37c0.87-4.23,1.73-8.46,2.59-12.69
			c0.22-1.04,0.43-2.09,0.64-3.13c0.16-0.78,0.32-1.57,0.48-2.35c5.08-6.7,11.86-14.22,20.29-19.52c1.83-1.15,3.73-2.19,5.71-3.09
			c2.92-1.35,6-2.39,9.24-3.04c0.41-0.09,0.82-0.17,1.23-0.23c0.87-0.15,1.75-0.27,2.64-0.36c12.58-1.24,21.46,4.81,30.74,12.12
			c0.26,0.2,0.52,0.41,0.78,0.62c0.51,0.4,1.03,0.82,1.55,1.23c10.56,8.43,22.06,17.83,40.37,19.55
			c24.75,2.32,49.13-10.22,60.31-26.69c2.9-4.27,10.37-15.26,6.84-26.81c-0.46-1.52-2.66-8.08-9.12-11.98
			c-5.62-3.38-12.8-3.75-19.66-1.28c-2.66,0.95-5.27,2.33-7.73,4.13c3.96-4.07,8.36-7.45,13.03-10.13h0.01
			c1.69-0.98,3.42-1.86,5.18-2.64c17.71-7.94,38.23-6.52,53.44,4.41c13.83,9.94,20.87,26.19,21.25,41.77
			C-77.99,57.85-78.53,62.73-79.75,67.32z"/>
		<path id="Path_26" class="st1" d="M-164.51,53.4c-0.6-0.63-1.15-1.3-1.66-2c-1.25-1.55-2.1-3.39-2.49-5.35
			c-0.23-1.57,0.28-1.36,0-2.68c-0.63-2.97-3.13-4.17-2.49-5.35c0.54-0.99,2.45-0.37,3.31-1.33c1.6-1.79-3.87-5.15-3.31-10.02
			c0.23-2.03,1.48-4.06,2.51-4.05c1.19,0.01,1.65,2.76,2.46,2.71c1.22-0.07,0.03-6.29,4.14-12.03c1.13-1.57,2.54-2.93,4.14-4.01
			c1.99-1.36,4.15-2.84,6.63-2.68c3.95,0.26,5.67,4.5,7.46,4.01c1.48-0.41,0.24-3.3,2.49-5.35c2-1.82,6.29-2.55,9.12-1.33
			c4.61,1.98,3.87,8.53,6.63,8.69c1.12,0.06,2.12-0.96,2.49-1.33c1.76-1.8,0.5-3.63,1.66-4.68c1.39-1.24,5.65-0.81,8.29,0.67
			c8.02,4.48,3.29,19.69,5.8,20.05c1.63,0.23,2.58-6.27,7.46-7.35c4.42-0.98,9.42,3.09,11.6,5.35c3.14,3.26,3.08,7.08,3.31,12.03
			c0.29,6.09-0.89,10.52,0,10.69c0.8,0.15,2.03-4.18,3.31-4.01c1.53,0.21,1.81,6.76,1.87,7.98c0.15,4.4-0.24,8.81-1.14,13.12
			c-0.7,3.71-1.76,8.59-3.42,14.26c4.07-9.94,5.4-13.89,5.7-15.4c0.41-2.01,0.57-2.85,0.57-2.85c0.27-1.38,0.36-1.91,0.57-2.85
			c0.25-1.08,0.45-1.8,0.57-2.28c0,0,0.55-2.1,1.08-5.29c0.8-4.2,0.83-8.52,0.09-12.73c-0.39-2.04-0.97-4.04-1.75-5.97
			c-3.15-7.84-8.72-12.8-12.43-16.04c-4.76-4.05-10.06-7.42-15.75-10.02c-5.37-2.61-10.44-5.07-17.98-6.3
			c-5.99-0.93-12.08-0.93-18.07,0c-4.88,0.75-16.08,2.48-24.45,10.31c-4.04,3.8-6.92,8.66-8.29,14.03c-1.04,3.51-2.74,9.62,0,16.7
			c1.81,4.4,4.65,8.3,8.29,11.36C-165.5,52.65-164.92,53.1-164.51,53.4z"/>
	</g>
	<g id="Group_11">
		
			<linearGradient id="SVGID_00000042722950763944560410000010125271642170026134_" gradientUnits="userSpaceOnUse" x1="567.7378" y1="1035.6339" x2="567.7378" y2="945.9628">
			<stop  offset="0" style="stop-color:#E8F1F3"/>
			<stop  offset="0" style="stop-color:#D5E5E9"/>
			<stop  offset="0.497" style="stop-color:#BCD5DB"/>
			<stop  offset="0.966" style="stop-color:#ABCBD2"/>
		</linearGradient>
		<path style="fill:url(#SVGID_00000042722950763944560410000010125271642170026134_);" d="M686.12,1010.42
			c-0.09,0.39-0.19,0.78-0.29,1.17c-0.93,3.51-2.22,6.87-3.82,10.05c-2.63,5.21-6.09,9.92-10.22,13.99H448
			c0.79-3.86,1.58-7.71,2.36-11.56c0.06-0.3,0.12-0.6,0.18-0.9c0.28-1.35,0.56-2.7,0.83-4.05c4.99-6.58,11.63-13.95,19.85-19.23
			c1.16-0.74,2.34-1.44,3.56-2.09h0.01c1.83-0.99,3.72-1.86,5.7-2.58c1.51-0.57,3.07-1.05,4.67-1.43c1.73-0.42,3.5-0.73,5.32-0.91
			c1.35-0.13,2.66-0.18,3.93-0.15c0.44,0.01,0.87,0.02,1.3,0.06c12.8,0.8,21.8,9.43,32.53,17.78c0.44,0.34,0.89,0.69,1.34,1.03
			c0.03,0.02,0.06,0.05,0.09,0.07c9.02,6.89,19.39,13.33,34.25,14.73c24.75,2.32,49.13-10.22,60.31-26.68
			c2.9-4.28,10.37-15.27,6.84-26.82c-0.46-1.52-2.66-8.08-9.13-11.98c-5.58-3.36-12.69-3.74-19.51-1.32
			c-2.71,0.95-5.37,2.35-7.87,4.18c3.79-3.9,7.98-7.17,12.42-9.77c0.02-0.02,0.04-0.03,0.06-0.04c2.12-1.26,4.3-2.36,6.52-3.31
			c17.53-7.56,37.66-6.02,52.65,4.75C684.08,968.24,690.59,991.59,686.12,1010.42z"/>
		
			<linearGradient id="SVGID_00000157276286037007234640000006474354058591582648_" gradientUnits="userSpaceOnUse" x1="725.7424" y1="1035.6339" x2="725.7424" y2="945.915">
			<stop  offset="0" style="stop-color:#E8F1F3"/>
			<stop  offset="0" style="stop-color:#D5E5E9"/>
			<stop  offset="0.497" style="stop-color:#BCD5DB"/>
			<stop  offset="0.966" style="stop-color:#ABCBD2"/>
		</linearGradient>
		<path style="fill:url(#SVGID_00000157276286037007234640000006474354058591582648_);" d="M845.21,1003.96
			c-0.27,2.59-0.73,5.13-1.38,7.59c-0.33,1.25-0.71,2.48-1.13,3.69l-0.01,0.02c-2.69,7.77-7.17,14.7-12.94,20.37H606
			c0.79-3.87,1.58-7.74,2.37-11.61c0.08-0.38,0.15-0.75,0.23-1.13c0.26-1.27,0.52-2.54,0.78-3.81c4.76-6.28,11.02-13.28,18.73-18.5
			c0.74-0.5,1.49-0.99,2.26-1.44c0.02-0.02,0.03-0.03,0.05-0.04c2.21-1.34,4.54-2.52,6.97-3.5c1.58-0.64,3.19-1.18,4.85-1.62h0.01
			c2.01-0.54,4.09-0.93,6.24-1.14c1.02-0.1,2.03-0.15,3.01-0.16c0.44-0.01,0.87,0,1.3,0.02c12.73,0.42,21.69,8.55,32.07,16.75
			c0.41,0.32,0.83,0.65,1.25,0.97c0.1,0.08,0.2,0.16,0.31,0.24c9.32,7.24,19.95,14.24,35.5,15.7c24.75,2.32,49.12-10.22,60.3-26.69
			c2.91-4.27,10.38-15.26,6.85-26.81c-0.46-1.52-2.66-8.08-9.13-11.98c-4.73-2.85-10.56-3.56-16.38-2.23h-0.01
			c-3.68,0.82-7.36,2.47-10.75,4.91c-0.08,0.05-0.16,0.11-0.24,0.17c0.11-0.12,0.23-0.23,0.34-0.34
			c10.89-11.03,25.02-16.86,38.96-17.44h0.19c11.47-0.43,22.82,2.7,32.16,9.41c1.04,0.75,2.04,1.53,3,2.35
			C840.97,969.34,846.9,987.64,845.21,1003.96z"/>
		<path id="Path_65" class="st1" d="M759.71,997.4c-0.6-0.63-1.15-1.3-1.66-2c-1.25-1.55-2.1-3.39-2.49-5.35
			c-0.23-1.57,0.28-1.36,0-2.68c-0.63-2.97-3.13-4.17-2.49-5.35c0.54-0.99,2.45-0.37,3.31-1.33c1.6-1.79-3.87-5.15-3.31-10.02
			c0.23-2.03,1.48-4.06,2.51-4.05c1.19,0.01,1.65,2.76,2.46,2.71c1.22-0.07,0.03-6.29,4.14-12.03c1.13-1.57,2.54-2.93,4.14-4.01
			c1.99-1.36,4.15-2.84,6.63-2.68c3.95,0.26,5.67,4.5,7.46,4.01c1.48-0.41,0.24-3.3,2.49-5.35c2-1.82,6.29-2.55,9.12-1.33
			c4.61,1.98,3.87,8.53,6.63,8.69c1.12,0.06,2.12-0.96,2.49-1.33c1.76-1.8,0.5-3.63,1.66-4.68c1.39-1.24,5.65-0.81,8.29,0.67
			c8.02,4.48,3.29,19.69,5.8,20.05c1.63,0.23,2.58-6.27,7.46-7.35c4.42-0.98,9.42,3.09,11.6,5.35c3.14,3.26,3.08,7.08,3.31,12.03
			c0.29,6.09-0.89,10.52,0,10.69c0.8,0.15,2.03-4.18,3.31-4.01c1.53,0.21,1.81,6.76,1.87,7.98c0.15,4.4-0.24,8.81-1.14,13.12
			c-0.7,3.71-1.76,8.59-3.42,14.26c4.07-9.94,5.4-13.89,5.7-15.4c0.41-2.01,0.57-2.85,0.57-2.85c0.27-1.38,0.36-1.91,0.57-2.85
			c0.25-1.08,0.45-1.8,0.57-2.28c0,0,0.55-2.1,1.08-5.29c0.8-4.2,0.83-8.52,0.09-12.73c-0.39-2.04-0.97-4.04-1.75-5.97
			c-3.15-7.84-8.72-12.8-12.43-16.04c-4.76-4.05-10.06-7.42-15.75-10.02c-5.37-2.61-10.44-5.07-17.98-6.3
			c-5.99-0.93-12.08-0.93-18.07,0c-4.88,0.75-16.08,2.48-24.45,10.31c-4.04,3.8-6.92,8.66-8.29,14.03c-1.04,3.51-2.74,9.62,0,16.7
			c1.81,4.4,4.65,8.3,8.29,11.36C758.71,996.64,759.3,997.09,759.71,997.4z"/>
		<g id="Group_2" transform="translate(393.088 944.634)">
			
				<linearGradient id="SVGID_00000008132118458502064680000003237435294135594114_" gradientUnits="userSpaceOnUse" x1="18.4563" y1="91" x2="18.4563" y2="1.0698">
				<stop  offset="0" style="stop-color:#E8F1F3"/>
				<stop  offset="0" style="stop-color:#D5E5E9"/>
				<stop  offset="0.497" style="stop-color:#BCD5DB"/>
				<stop  offset="0.966" style="stop-color:#ABCBD2"/>
			</linearGradient>
			<path style="fill:url(#SVGID_00000008132118458502064680000003237435294135594114_);" d="M136.57,66.7
				c-0.02,0.09-0.05,0.18-0.08,0.27c-0.12,0.48-0.26,0.95-0.4,1.42c-0.02,0.06-0.05,0.12-0.07,0.19c-0.74,2.49-1.69,4.9-2.81,7.22
				c-0.02,0.04-0.04,0.09-0.06,0.14c-0.25,0.51-0.51,1.02-0.78,1.53c0,0.01,0,0.02-0.01,0.03c-2.63,5.02-6.06,9.57-10.1,13.5
				h-223.57c0.8-3.95,1.61-7.89,2.41-11.83c0.12-0.55,0.23-1.11,0.34-1.66c0.22-1.09,0.45-2.19,0.67-3.28
				c6.08-8.03,14.62-17.22,25.48-22.38c1.68-0.79,3.41-1.49,5.2-2.07c2.68-0.88,5.5-1.5,8.43-1.79c0.3-0.03,0.59-0.05,0.89-0.07
				c0.43-0.04,0.86-0.06,1.28-0.07c13.35-0.46,22.53,7.45,32.96,15.76c0.48,0.38,0.96,0.76,1.44,1.14c0.08,0.06,0.16,0.12,0.24,0.19
				c9.6,7.54,20.46,15.05,36.63,16.57c24.75,2.32,49.12-10.22,60.31-26.69c2.9-4.27,10.37-15.26,6.84-26.81
				c-0.46-1.52-2.66-8.08-9.13-11.98c-5.61-3.38-12.79-3.75-19.65-1.28c-2.66,0.95-5.27,2.33-7.73,4.13
				c3.94-4.05,8.32-7.42,12.96-10.09c0,0,0-0.01,0.01,0c1.72-0.99,3.47-1.88,5.25-2.68c17.71-7.94,38.22-6.52,53.43,4.41
				C135.19,23.62,141.6,47.68,136.57,66.7z"/>
			<path id="Path_21" class="st1" d="M51.81,52.78c-0.6-0.63-1.15-1.3-1.66-2c-1.25-1.55-2.1-3.39-2.49-5.35
				c-0.23-1.57,0.28-1.36,0-2.68c-0.63-2.97-3.13-4.17-2.49-5.35c0.54-0.99,2.45-0.37,3.31-1.33c1.6-1.79-3.87-5.15-3.31-10.02
				c0.23-2.03,1.48-4.06,2.51-4.05c1.19,0.01,1.65,2.76,2.46,2.71c1.22-0.07,0.03-6.29,4.14-12.03c1.13-1.57,2.54-2.93,4.14-4.01
				c1.99-1.36,4.15-2.84,6.63-2.68c3.95,0.26,5.67,4.5,7.46,4.01c1.48-0.41,0.24-3.3,2.49-5.35c2-1.82,6.29-2.55,9.12-1.33
				c4.61,1.98,3.87,8.53,6.63,8.69c1.12,0.06,2.12-0.96,2.49-1.33C95,8.88,93.74,7.05,94.9,6c1.39-1.24,5.65-0.81,8.29,0.67
				c8.02,4.48,3.29,19.69,5.8,20.05c1.63,0.23,2.58-6.27,7.46-7.35c4.42-0.98,9.42,3.09,11.6,5.35c3.14,3.26,3.08,7.08,3.31,12.03
				c0.29,6.09-0.89,10.52,0,10.69c0.8,0.15,2.03-4.18,3.31-4.01c1.53,0.21,1.81,6.76,1.87,7.98c0.15,4.4-0.24,8.81-1.14,13.12
				c-0.7,3.71-1.76,8.59-3.42,14.26c4.07-9.94,5.4-13.89,5.7-15.4c0.41-2.01,0.57-2.85,0.57-2.85c0.27-1.38,0.36-1.91,0.57-2.85
				c0.25-1.08,0.45-1.8,0.57-2.28c0,0,0.55-2.1,1.08-5.29c0.8-4.2,0.83-8.52,0.09-12.73c-0.39-2.04-0.97-4.04-1.75-5.97
				c-3.15-7.84-8.72-12.8-12.43-16.04c-4.76-4.05-10.06-7.42-15.75-10.02c-5.37-2.61-10.44-5.07-17.98-6.3
				c-5.99-0.93-12.08-0.93-18.07,0C69.72-0.21,58.53,1.52,50.16,9.35c-4.04,3.8-6.92,8.66-8.29,14.03c-1.04,3.51-2.74,9.62,0,16.7
				c1.81,4.4,4.65,8.3,8.29,11.36C50.81,52.02,51.4,52.47,51.81,52.78z"/>
			<path id="Path_64" class="st1" d="M208.23,52.78c-0.6-0.63-1.15-1.3-1.66-2c-1.25-1.55-2.1-3.39-2.49-5.35
				c-0.23-1.57,0.28-1.36,0-2.68c-0.63-2.97-3.13-4.17-2.49-5.35c0.54-0.99,2.45-0.37,3.31-1.33c1.6-1.79-3.87-5.15-3.31-10.02
				c0.23-2.03,1.48-4.06,2.51-4.05c1.19,0.01,1.65,2.76,2.46,2.71c1.22-0.07,0.03-6.29,4.14-12.03c1.13-1.57,2.54-2.93,4.14-4.01
				c1.99-1.36,4.15-2.84,6.63-2.68c3.95,0.26,5.67,4.5,7.46,4.01c1.48-0.41,0.24-3.3,2.49-5.35c2-1.82,6.29-2.55,9.12-1.33
				c4.61,1.98,3.87,8.53,6.63,8.69c1.12,0.06,2.12-0.96,2.49-1.33c1.76-1.8,0.5-3.63,1.66-4.68c1.39-1.24,5.65-0.81,8.29,0.67
				c8.02,4.48,3.29,19.69,5.8,20.05c1.63,0.23,2.58-6.27,7.46-7.35c4.42-0.98,9.42,3.09,11.6,5.35c3.14,3.26,3.08,7.08,3.31,12.03
				c0.29,6.09-0.89,10.52,0,10.69c0.8,0.15,2.03-4.18,3.31-4.01c1.53,0.21,1.81,6.76,1.87,7.98c0.15,4.4-0.24,8.81-1.14,13.12
				c-0.7,3.71-1.76,8.59-3.42,14.26c4.07-9.94,5.4-13.89,5.7-15.4c0.41-2.01,0.57-2.85,0.57-2.85c0.27-1.38,0.36-1.91,0.57-2.85
				c0.25-1.08,0.45-1.8,0.57-2.28c0,0,0.55-2.1,1.08-5.29c0.8-4.2,0.83-8.52,0.09-12.73c-0.39-2.04-0.97-4.04-1.75-5.97
				c-3.15-7.84-8.72-12.8-12.43-16.04c-4.76-4.05-10.06-7.42-15.75-10.02c-5.37-2.61-10.44-5.07-17.98-6.3
				c-5.99-0.93-12.08-0.93-18.07,0c-4.88,0.75-16.08,2.48-24.45,10.31c-4.04,3.8-6.92,8.66-8.29,14.03c-1.04,3.51-2.74,9.62,0,16.7
				c1.81,4.4,4.65,8.3,8.29,11.36C207.23,52.02,207.82,52.47,208.23,52.78z"/>
		</g>
	</g>
	<g id="Group_3" transform="translate(161.976 944.634)">
		
			<linearGradient id="SVGID_00000031187570462340346860000000200520094368990110_" gradientUnits="userSpaceOnUse" x1="-101.999" y1="91.11" x2="-101.999" y2="91.03">
			<stop  offset="0" style="stop-color:#E8F1F3"/>
			<stop  offset="0" style="stop-color:#D5E5E9"/>
			<stop  offset="0.497" style="stop-color:#BCD5DB"/>
			<stop  offset="0.966" style="stop-color:#ABCBD2"/>
		</linearGradient>
		<path style="fill:url(#SVGID_00000031187570462340346860000000200520094368990110_);" d="M-101.99,91.03v0.08
			c-0.01,0-0.01,0-0.02,0C-102,91.08-102,91.06-101.99,91.03z"/>
		
			<linearGradient id="SVGID_00000169546479179627519990000012117491467991323265_" gradientUnits="userSpaceOnUse" x1="54.0523" y1="91" x2="54.0523" y2="1.0617">
			<stop  offset="0" style="stop-color:#E8F1F3"/>
			<stop  offset="0" style="stop-color:#D5E5E9"/>
			<stop  offset="0.497" style="stop-color:#BCD5DB"/>
			<stop  offset="0.966" style="stop-color:#ABCBD2"/>
		</linearGradient>
		<path style="fill:url(#SVGID_00000169546479179627519990000012117491467991323265_);" d="M208.9,64.75
			c-0.14,0.65-0.3,1.3-0.47,1.95c-0.15,0.57-0.31,1.13-0.48,1.69c-0.02,0.06-0.05,0.12-0.07,0.19c-0.74,2.49-1.69,4.9-2.81,7.22
			c-0.02,0.04-0.04,0.09-0.06,0.14c-0.25,0.52-0.51,1.03-0.78,1.54c0,0.01,0,0.02-0.01,0.03c-2.64,5.02-6.07,9.56-10.11,13.49
			h-296.09c1.75-7.35,31.12-18.75,41.34-14.14c10.27,4.63,11.06,7.21,29.49,0c18.43-7.22,26.71-27.14,44.23-28.87
			c27.82-2.75,37.53,30.14,73.44,33.52c24.75,2.32,49.12-10.22,60.31-26.69c2.9-4.27,10.37-15.26,6.84-26.81
			c-0.46-1.52-2.66-8.08-9.13-11.98c-5.61-3.38-12.79-3.75-19.65-1.28c-2.66,0.95-5.27,2.33-7.73,4.13
			c3.94-4.05,8.31-7.41,12.95-10.09c0.02-0.01,0.04-0.03,0.07-0.04c1.69-0.96,3.4-1.84,5.15-2.63c0.01-0.01,0.02-0.01,0.03-0.01
			c17.71-7.95,38.23-6.53,53.45,4.4C206.43,23.18,213.01,46.06,208.9,64.75z"/>
		<path id="Path_23-2" class="st1" d="M123.67,52.78c-0.6-0.63-1.15-1.3-1.66-2c-1.25-1.55-2.1-3.39-2.49-5.35
			c-0.23-1.57,0.28-1.36,0-2.68c-0.63-2.97-3.13-4.17-2.49-5.35c0.54-0.99,2.45-0.37,3.31-1.33c1.6-1.79-3.87-5.15-3.31-10.02
			c0.23-2.03,1.48-4.06,2.51-4.05c1.19,0.01,1.65,2.76,2.46,2.71c1.22-0.07,0.03-6.29,4.14-12.03c1.13-1.57,2.54-2.93,4.14-4.01
			c1.99-1.36,4.15-2.84,6.63-2.68c3.95,0.26,5.67,4.5,7.46,4.01c1.48-0.41,0.24-3.3,2.49-5.35c2-1.82,6.29-2.55,9.12-1.33
			c4.61,1.98,3.87,8.53,6.63,8.69c1.12,0.06,2.12-0.96,2.49-1.33c1.76-1.8,0.5-3.63,1.66-4.68c1.39-1.24,5.65-0.81,8.29,0.67
			c8.02,4.48,3.29,19.69,5.8,20.05c1.63,0.23,2.58-6.27,7.46-7.35c4.42-0.98,9.42,3.09,11.6,5.35c3.14,3.26,3.08,7.08,3.31,12.03
			c0.29,6.09-0.89,10.52,0,10.69c0.8,0.15,2.03-4.18,3.31-4.01c1.53,0.21,1.81,6.76,1.87,7.98c0.15,4.4-0.24,8.81-1.14,13.12
			c-0.7,3.71-1.76,8.59-3.42,14.26c4.07-9.94,5.4-13.89,5.7-15.4c0.41-2.01,0.57-2.85,0.57-2.85c0.27-1.38,0.36-1.91,0.57-2.85
			c0.25-1.08,0.45-1.8,0.57-2.28c0,0,0.55-2.1,1.08-5.29c0.8-4.2,0.83-8.52,0.09-12.73c-0.39-2.04-0.97-4.04-1.75-5.97
			c-3.15-7.84-8.72-12.8-12.43-16.04c-4.76-4.05-10.06-7.42-15.75-10.03c-5.37-2.61-10.44-5.07-17.98-6.3
			c-5.99-0.93-12.08-0.93-18.07,0c-4.88,0.75-16.08,2.48-24.45,10.31c-4.04,3.8-6.92,8.66-8.29,14.03c-1.04,3.51-2.74,9.62,0,16.7
			c1.81,4.4,4.65,8.3,8.29,11.36C122.68,52.02,123.26,52.47,123.67,52.78z"/>
	</g>
	<g id="Group_15" transform="translate(61 -8.324)">
		<path id="Path_59" class="st8" d="M259.45,980.89c0.78,11.89-1,16.56-2.94,18.54c-0.21,0.21-0.72,0.7-1.39,1.5
			c-1.99,2.38-3.46,5.14-4.33,8.12c3.21-1.9,5.87-4.62,7.69-7.88c1.73-3.24,2.62-6.86,2.6-10.53
			C261.16,987.31,260.6,984,259.45,980.89z"/>
		<path id="Path_60" class="st8" d="M258.94,976.47c6.14,15.24,5.39,21.59,3.21,24.45c-1.5,1.73-2.6,3.76-3.25,5.96
			c-1.07,3.88,0.48,4.76-0.54,7.04c-1.66,3.69-6.28,2.59-12.45,7.58c-2.01,1.63-2,2.14-3.79,3.79c-2.89,2.68-7.7,5.76-15.98,7.12
			c3.24,0.17,14.69,0.38,25.18-7.66c5.83-4.36,10.18-10.41,12.46-17.33C268.7,991.86,260.25,978.47,258.94,976.47z"/>
		<path id="Path_61" class="st8" d="M269.91,987.21c6.14,15.24,5.39,21.59,3.21,24.45c-1.5,1.73-2.6,3.76-3.25,5.96
			c-1.07,3.88,0.48,4.76-0.54,7.04c-1.66,3.69-6.28,2.59-12.45,7.58c-2.01,1.63-2,2.14-3.79,3.79c-2.89,2.68-7.7,5.76-15.98,7.12
			c3.24,0.17,14.69,0.38,25.18-7.66c5.83-4.36,10.18-10.41,12.45-17.33C279.66,1002.6,271.22,989.21,269.91,987.21z"/>
	</g>
	<g id="Group_16" transform="translate(292 -8.324)">
		<path id="Path_59-2" class="st8" d="M187.62,980.89c0.78,11.89-1,16.56-2.94,18.54c-0.21,0.21-0.72,0.7-1.39,1.5
			c-1.99,2.38-3.46,5.14-4.33,8.12c3.21-1.9,5.87-4.62,7.69-7.88c1.73-3.24,2.62-6.86,2.6-10.53
			C189.33,987.31,188.78,984,187.62,980.89z"/>
		<path id="Path_60-2" class="st8" d="M187.12,976.47c6.14,15.24,5.39,21.59,3.21,24.45c-1.5,1.73-2.6,3.76-3.25,5.96
			c-1.07,3.88,0.48,4.76-0.54,7.04c-1.66,3.69-6.28,2.59-12.45,7.58c-2.01,1.63-2,2.14-3.79,3.79c-2.89,2.68-7.7,5.76-15.98,7.12
			c3.24,0.17,14.69,0.38,25.18-7.66c5.83-4.36,10.18-10.41,12.46-17.33C196.87,991.86,188.42,978.47,187.12,976.47z"/>
		<path id="Path_61-2" class="st8" d="M198.08,987.21c6.14,15.24,5.39,21.59,3.21,24.45c-1.5,1.73-2.6,3.76-3.25,5.96
			c-1.07,3.88,0.48,4.76-0.54,7.04c-1.66,3.69-6.28,2.59-12.45,7.58c-2.01,1.63-2,2.14-3.79,3.79c-2.89,2.68-7.7,5.76-15.98,7.12
			c3.24,0.17,14.69,0.38,25.18-7.66c5.83-4.36,10.18-10.41,12.45-17.33C207.84,1002.6,199.39,989.21,198.08,987.21z"/>
	</g>
	<g id="Group_17" transform="translate(520 -8.324)">
		<path id="Path_59-3" class="st8" d="M116.73,980.89c0.78,11.89-1,16.56-2.94,18.54c-0.21,0.21-0.72,0.7-1.39,1.5
			c-1.99,2.38-3.46,5.14-4.33,8.12c3.21-1.9,5.87-4.62,7.69-7.88c1.73-3.24,2.62-6.86,2.6-10.53
			C118.44,987.31,117.88,984,116.73,980.89z"/>
		<path id="Path_60-3" class="st8" d="M116.22,976.47c6.14,15.24,5.39,21.59,3.21,24.45c-1.5,1.73-2.6,3.76-3.25,5.96
			c-1.07,3.88,0.48,4.76-0.54,7.04c-1.66,3.69-6.28,2.59-12.45,7.58c-2.01,1.63-2,2.14-3.79,3.79c-2.89,2.68-7.7,5.76-15.98,7.12
			c3.24,0.17,14.69,0.38,25.18-7.66c5.83-4.36,10.18-10.41,12.46-17.33C125.98,991.86,117.53,978.47,116.22,976.47z"/>
		<path id="Path_61-3" class="st8" d="M127.19,987.21c6.14,15.24,5.39,21.59,3.21,24.45c-1.5,1.73-2.6,3.76-3.25,5.96
			c-1.07,3.88,0.48,4.76-0.54,7.04c-1.66,3.69-6.28,2.59-12.45,7.58c-2.01,1.63-2,2.14-3.79,3.79c-2.89,2.68-7.7,5.76-15.98,7.12
			c3.24,0.17,14.69,0.38,25.18-7.66c5.83-4.36,10.18-10.41,12.45-17.33C136.94,1002.6,128.5,989.21,127.19,987.21z"/>
	</g>
	<g id="Group_18" transform="translate(750 -8.324)">
		<path id="Path_59-4" class="st8" d="M45.21,980.89c0.78,11.89-1,16.56-2.94,18.54c-0.21,0.21-0.72,0.7-1.39,1.5
			c-1.99,2.38-3.46,5.14-4.33,8.12c3.21-1.9,5.87-4.62,7.69-7.88c1.73-3.24,2.62-6.86,2.6-10.53
			C46.92,987.31,46.37,984,45.21,980.89z"/>
		<path id="Path_60-4" class="st8" d="M44.71,976.47c6.14,15.24,5.39,21.59,3.21,24.45c-1.5,1.73-2.6,3.76-3.25,5.96
			c-1.07,3.88,0.48,4.76-0.54,7.04c-1.66,3.69-6.28,2.59-12.45,7.58c-2.01,1.63-2,2.14-3.79,3.79c-2.89,2.68-7.7,5.76-15.98,7.12
			c3.24,0.17,14.69,0.38,25.18-7.66c5.83-4.36,10.18-10.41,12.46-17.33C54.46,991.86,46.02,978.47,44.71,976.47z"/>
		<path id="Path_61-4" class="st8" d="M55.67,987.21c6.14,15.24,5.39,21.59,3.21,24.45c-1.5,1.73-2.6,3.76-3.25,5.96
			c-1.07,3.88,0.48,4.76-0.54,7.04c-1.66,3.69-6.28,2.59-12.45,7.58c-2.01,1.63-2,2.14-3.79,3.79c-2.89,2.68-7.7,5.76-15.98,7.12
			c3.24,0.17,14.69,0.38,25.18-7.66c5.83-4.36,10.18-10.41,12.45-17.33C65.43,1002.6,56.98,989.21,55.67,987.21z"/>
	</g>
	<g id="Group_19" transform="translate(988 -8.324)">
		<path id="Path_59-5" class="st8" d="M-28.79,980.89c0.78,11.89-1,16.56-2.94,18.54c-0.21,0.21-0.72,0.7-1.39,1.5
			c-1.99,2.38-3.46,5.14-4.33,8.12c3.21-1.9,5.87-4.62,7.69-7.88c1.73-3.24,2.62-6.86,2.6-10.53
			C-27.08,987.31-27.63,984-28.79,980.89z"/>
		<path id="Path_60-5" class="st8" d="M-29.3,976.47c6.14,15.24,5.39,21.59,3.21,24.45c-1.5,1.73-2.6,3.76-3.25,5.96
			c-1.07,3.88,0.48,4.76-0.54,7.04c-1.66,3.69-6.28,2.59-12.45,7.58c-2.01,1.63-2,2.14-3.79,3.79c-2.89,2.68-7.7,5.76-15.98,7.12
			c3.24,0.17,14.69,0.38,25.18-7.66c5.83-4.36,10.18-10.41,12.46-17.33C-19.54,991.86-27.99,978.47-29.3,976.47z"/>
		<path id="Path_61-5" class="st8" d="M-18.33,987.21c6.14,15.24,5.39,21.59,3.21,24.45c-1.5,1.73-2.6,3.76-3.25,5.96
			c-1.07,3.88,0.48,4.76-0.54,7.04c-1.66,3.69-6.28,2.59-12.45,7.58c-2.01,1.63-2,2.14-3.79,3.79c-2.89,2.68-7.7,5.76-15.98,7.12
			c3.24,0.17,14.69,0.38,25.18-7.66c5.83-4.36,10.18-10.41,12.45-17.33C-8.57,1002.6-17.02,989.21-18.33,987.21z"/>
	</g>
	<g id="Group_20" transform="translate(1237 -8.324)">
		<path id="Path_59-6" class="st8" d="M-106.21,980.89c0.78,11.89-1,16.56-2.94,18.54c-0.21,0.21-0.72,0.7-1.39,1.5
			c-1.99,2.38-3.46,5.14-4.33,8.12c3.21-1.9,5.87-4.62,7.69-7.88c1.73-3.24,2.62-6.86,2.6-10.53
			C-104.5,987.31-105.06,984-106.21,980.89z"/>
		<path id="Path_60-6" class="st8" d="M-106.72,976.47c6.14,15.24,5.39,21.59,3.21,24.45c-1.5,1.73-2.6,3.76-3.25,5.96
			c-1.07,3.88,0.48,4.76-0.54,7.04c-1.66,3.69-6.28,2.59-12.45,7.58c-2.01,1.63-2,2.14-3.79,3.79c-2.89,2.68-7.7,5.76-15.98,7.12
			c3.24,0.17,14.69,0.38,25.18-7.66c5.83-4.36,10.18-10.41,12.46-17.33C-96.96,991.86-105.41,978.47-106.72,976.47z"/>
		<path id="Path_61-6" class="st8" d="M-95.75,987.21c6.14,15.24,5.39,21.59,3.21,24.45c-1.5,1.73-2.6,3.76-3.25,5.96
			c-1.07,3.88,0.48,4.76-0.54,7.04c-1.66,3.69-6.28,2.59-12.45,7.58c-2.01,1.63-2,2.14-3.79,3.79c-2.89,2.68-7.7,5.76-15.98,7.12
			c3.24,0.17,14.69,0.38,25.18-7.66c5.83-4.36,10.18-10.41,12.45-17.33C-86,1002.6-94.44,989.21-95.75,987.21z"/>
	</g>
</g>
<path class="st9" d="M0.01,97C0,97.01,0,97.02,0,97.03V97H0.01z"/>
</svg>
