<?xml version="1.0" encoding="utf-8"?>
<!-- Generator: Adobe Illustrator 26.1.0, SVG Export Plug-In . SVG Version: 6.00 Build 0)  -->
<svg version="1.1" id="Layer_1" xmlns="http://www.w3.org/2000/svg" xmlns:xlink="http://www.w3.org/1999/xlink" x="0px" y="0px"
	 viewBox="0 0 113.87 110.13" style="enable-background:new 0 0 113.87 110.13;" xml:space="preserve">
<style type="text/css">
	.st0{fill:#7C82BC;}
	.st1{fill:#C1C7DF;}
	.st2{fill:#E8E9FB;}
	.st3{fill:#FFFFFF;}
	.st4{fill:#50479D;}
</style>
<g>
	<g>
		<path class="st0" d="M3.15,73.1h51.98h53.61c-2.96,5.71-13.04,23.41-32.6,30c-8.98,3.03-17.91,3.02-21,3
			c-4.1-0.03-13.49-0.18-23-4C14.31,94.92,5.78,78.7,3.15,73.1z"/>
		<path class="st0" d="M47.66,73.1V3.52C49,4.6,90.66,38.32,110.15,54.1c-19.67,0-39.33,0-59,0c0,6.33,0,12.67,0,19
			C49.99,73.1,48.83,73.1,47.66,73.1z"/>
		<path class="st1" d="M3.15,73.1c34,2,68,4,102,6c-0.16,1.05-0.59,3.01-2,5c-1.75,2.47-4,3.58-5,4c-14.05-3.25-25.99-5.48-35-7
			c-12.25-2.07-22.13-3.34-35-5C17.97,74.78,9.41,73.79,3.15,73.1z"/>
		<path class="st2" d="M3.15,73.1c0.01-0.49,19.13-0.81,106,0c0.05,0.38,0.29,2.27-1,4c-1.08,1.45-2.56,1.89-3,2
			c-15.93-1.05-39.36-2.51-68-4C14.64,73.92,3.15,73.47,3.15,73.1z"/>
		<polygon class="st1" points="47.66,73.1 51.15,73.1 47.66,71.1 		"/>
	</g>
	<polygon class="st1" points="51.15,54.1 110.15,54.1 51.15,6.34 	"/>
	<path class="st3" d="M71.15,26.7l33.5,25.49l-14.51-9.96l1.51,3.96l-16-12c3.67,2,7.33,4,11,6C81.49,35.69,76.32,31.19,71.15,26.7z
		"/>
	<path class="st3" d="M56.8,20.79l28.76,22.4l-12.61-9.12l0.89,2.55l-13.76-10.6c3.26,2.02,6.52,4.04,9.78,6.06
		C65.51,28.32,61.16,24.56,56.8,20.79z"/>
	<path class="st4" d="M19.23,94.33c6.06,2.81,13.94,5.8,23.42,7.86c10.88,2.36,20.43,2.74,27.72,2.48
		c-9.54,1.9-17.42,1.64-22.71,1.07c-3.59-0.39-8.26-0.92-14-3.07C27.1,100.22,22.28,96.84,19.23,94.33z"/>
</g>
</svg>
