<?xml version="1.0" encoding="utf-8"?>
<!-- Generator: Adobe Illustrator 26.1.0, SVG Export Plug-In . SVG Version: 6.00 Build 0)  -->
<svg version="1.1" id="Layer_1" xmlns="http://www.w3.org/2000/svg" xmlns:xlink="http://www.w3.org/1999/xlink" x="0px" y="0px"
	 viewBox="0 0 1366 768" style="enable-background:new 0 0 1366 768;" xml:space="preserve">
<style type="text/css">
	.st0{fill:url(#SVGID_1_);}
	.st1{opacity:0.54;fill:#F0EBD6;}
	.st2{fill:url(#SVGID_00000008845093719403845370000008352578499159871635_);}
	.st3{fill:url(#SVGID_00000035510914408627412880000014997122664280160950_);}
	.st4{fill:url(#SVGID_00000029005356954709533760000005016967709466827904_);}
	.st5{fill:url(#SVGID_00000035530356152512108320000000355599936491676078_);}
	.st6{fill:#FFFFFF;}
	.st7{fill:#BDD6DB;}
	.st8{fill:#ABCBD2;}
	.st9{fill:#8FC3CE;}
	.st10{opacity:0.4;fill:#FFFFFF;}
	.st11{opacity:0.46;fill:#FFFFFF;}
	.st12{opacity:0.6;fill:#FFFFFF;}
	.st13{fill:url(#SVGID_00000153688918257897327020000007978466535360087695_);}
	.st14{fill:url(#SVGID_00000088852776336791041250000006679492639999473572_);}
	.st15{fill:url(#SVGID_00000158738380036311163480000007295436893806113179_);}
	.st16{fill:url(#SVGID_00000142157549494767878490000009999268059770240933_);}
	.st17{fill:url(#SVGID_00000104703982501926047890000008137909223873183109_);}
	.st18{fill:#EAF2FF;}
	.st19{fill:url(#SVGID_00000049209339992562329740000017336542903978616970_);}
	.st20{fill:url(#SVGID_00000145736898368075062980000003091556954453856953_);}
	.st21{fill:url(#SVGID_00000053511753284816610580000006227330264862811567_);}
	.st22{fill:url(#SVGID_00000023255120282195187370000017329125826574134680_);}
	.st23{opacity:0.43;fill:#FFFFFF;}
	.st24{fill:#50479D;}
</style>
<linearGradient id="SVGID_1_" gradientUnits="userSpaceOnUse" x1="686" y1="768" x2="686" y2="-9.094947e-13">
	<stop  offset="0.3531" style="stop-color:#E8F1F3"/>
	<stop  offset="1" style="stop-color:#BCD5DB"/>
</linearGradient>
<rect class="st0" width="1372" height="768"/>
<path class="st1" d="M519,606.7c-1.66-15.08-2.39-39.68,6.13-68.28c11.96-40.19,35.3-65.21,41.85-71.92
	c40.85-41.86,91.27-50.9,103.45-52.79c11.96-1.86,59.68-8.08,110.21,16.02c5.63,2.69,32.57,15.89,57.91,43.81
	c22.11,24.36,32.96,48.85,38.33,64.12l28.34-1.06l21.14,1.82l-22.09-12.58l-19.88-8.21l8.63-18.84c0.53-4.09,2.13-11.84,8-18.79
	c6.13-7.26,15.3-11.74,17-10c1.39,1.42-3.68,5.49-3,12c0.59,5.59,5.21,10.9,11,13c5.7,2.07,13.68,1.45,17.06-3.19
	c4.7-6.45-1.03-18.48-8.06-24.33c-9.77-8.12-25.32-7.92-36-2.85c-17.16,8.15-19.87,28.01-24.36,27.18
	c-2.62-0.48-5.05-7.86-3.06-41.12c1.08-7.52,7.99-50.9,41.87-65.37c14.42-6.16,36.32-8.19,41.87,0c5.61,8.27-7.9,23.36-4.09,26.16
	c3.05,2.24,15.33-4.76,21.44-15.45c6.34-11.09,6.92-27.7-1.65-36.83c-13.78-14.7-50.27-8.99-72.03,7.67
	c-30.1,23.05-26.24,61.17-41,61.69c-13.84,0.49-25.51-32.56-29-45.56c-3.61-13.46-4.2-26.89-1-28c2.24-0.78,4.34,5.19,10,6
	c6.63,0.95,16.27-5.43,16-13c-0.27-7.36-9.77-12.24-17-12c-9.5,0.32-15.4,9.5-17,12c-12.32,19.17-0.52,43.5-3.57,44.5
	c-3.43,1.12-24.38-27.24-16.43-51.25c5.93-17.9,26.03-22.52,23.57-30.56c-2.16-7.06-20.24-12.03-30.68-5.76
	c-14.77,8.87,1.14,38.46-13.97,50.4c-7.96,6.29-21.76,6.02-28.92-0.32c-5.63-4.99-8.11-14.58-5-18c2.31-2.54,6.33-0.18,9-3
	c3.06-3.24,2.42-11.26-2-14c-3.48-2.16-8.77-0.71-12,2c-9.49,7.98,0.76,25.41-8,33c-4.79,4.15-13.39,3.67-19,0
	c-4.96-3.24-8.16-10.56-7-17c2.39-13.28,21.27-11.57,26-25c4.17-11.85-8.3-19.49-7-40c0.53-8.39,3.13-15.03,5-19
	c0.26-1.56,1.33-8.73-3-13c-4.44-4.37-13.33-4.5-18-1c-14.09,10.55,12.72,52.27-4,69c-7.08,7.08-13.92,1.64-24,9
	c-21.3,15.55-13.24,56.22-17,56.47c-2.91,0.19-11.13-24.03-10-55.05c0.93-25.7,7.52-33.42,1-43.66
	c-10.39-16.32-41.49-19.31-46.23-11.99c-5.63,8.71,27.3,30.06,20.23,45.21c-4.73,10.12-21.88,5.91-27,17.08
	c-6.45,14.09,12.53,38.94,12.53,38.95c-0.22,3.59-1.14,7.43-4.06,9.14c-13.29,7.81-52.75-37.37-60.48-31.96
	c-7.38,5.16,25.3,48.76,12,62.64c-8.69,9.07-27.63,7.77-37.66,6.64c-29.22-3.27-42.41-19.91-55.34-12.48c-5.15,2.96-9.42,9.25-8,13
	c1.88,4.95,14.27,7.05,18,2c0.53-0.71,1.58-2.51,1-6c9.35,1.37,12.48,3.68,13,6c0.85,3.82-5.37,7.85-4,10c0.84,1.32,4.11,1.27,5,0
	c0.73-1.04-0.59-2.26,0-4c0.74-2.16,3.68-2.92,4-3c2.5-0.61,3.69,0.67,8,2c4.65,1.43,5.29,0.55,10,2c0,0,3.47,1.07,7,3
	c8.11,4.44,20.42,20.63,16.66,26.69c-7.33,11.82-74.06-17.76-80.66-5.69c-0.68,1.23-2.01,5.27-2,10c0.01,3.15,0.02,6.31,2,9
	c3.2,4.35,10.92,6.68,16,3c2.61-1.89,5.1-5.79,4-10c-1.07-4.1-5.18-7.11-10-7c33.68,1.05,56.15,14.68,57,28
	c0.59,9.33-9.38,19.12-17,23.64c-7.19,4.27-15.89,5.02-33,6.36c-17.52,1.37-24.62,0.48-25,2.18c-0.42,1.9,7.68,6.55,48,18.98
	c0.8,1.04,7.32,9.79,4,20.88c-3.5,11.7-14.9,15.76-16,16.13c-3.04,1.07-6.08,2.14-9.12,3.21c-0.15,5.89,1.21,10.39,2.54,13.46
	C489.17,602.91,516.74,606.44,519,606.7z"/>
<g>
	
		<linearGradient id="SVGID_00000098200044179729993550000017563397938887027096_" gradientUnits="userSpaceOnUse" x1="697.0657" y1="347.9808" x2="697.0657" y2="769.3329">
		<stop  offset="0" style="stop-color:#F4EFD8"/>
		<stop  offset="0.7112" style="stop-color:#EFE7C5"/>
		<stop  offset="1" style="stop-color:#F3D86A"/>
	</linearGradient>
	<path style="fill:url(#SVGID_00000098200044179729993550000017563397938887027096_);" d="M881,578.5
		C793.97,756.02,700.5,759,700.5,759C568.98,762.39,490.89,613.27,510,569c3.85-8.92,18.07-28.47,10.55-41.63
		c-5.74-10.04-20.81-10.55-20.55-15.37c0.29-5.32,18.55-3.28,33.99-15.07c12.04-9.2,21.23-25.96,20.01-41.93
		c-1.38-18.11-15.63-28.58-12-33c4.32-5.27,23.82,10.49,33,4c12.53-8.87-6.62-50.43,2-55c8.48-4.5,32.15,32.9,46,27
		c3.64-1.55,5.02-5.43,7-11c8.35-23.51-5.24-46.01,0-49c2.67-1.52,8.04,3.26,10,5c13.36,11.89,8.67,23.77,18,36
		c7.98,10.45,20.38,13.52,42.5,19c9.3,2.3,17.07,4.23,27.5,4c26.9-0.58,31.76-14.6,46-11c20.99,5.31,26.14,39.76,41,38
		c5.35-0.63,6.33-5.3,12-5c10.44,0.55,12.51,16.64,22,18c11.25,1.62,22.77-18.91,24-18c1.25,0.93-11.33,14.47-14,33
		c-3.1,21.57,8.34,42.23,15,42c3.72-0.13,5.4-6.79,14-9c1.22-0.31,5.19-1.34,6,0c1.95,3.21-17.95,13.94-16,23
		c1.57,7.32,16.59,9.86,16,12c-0.53,1.92-12.17-0.51-13,2c-0.54,1.62,3.88,3.97,6,6C896.07,541.72,886.41,567.47,881,578.5z"/>
	
		<linearGradient id="SVGID_00000058581509520790134850000005990726062242899852_" gradientUnits="userSpaceOnUse" x1="701.2214" y1="459.1448" x2="701.2214" y2="699.2198">
		<stop  offset="0" style="stop-color:#EFE7C5"/>
		<stop  offset="1.385225e-07" style="stop-color:#EFE7C5"/>
		<stop  offset="0.3089" style="stop-color:#EFE7C3"/>
		<stop  offset="0.4162" style="stop-color:#EFE6BE"/>
		<stop  offset="0.5235" style="stop-color:#EFE5B8"/>
		<stop  offset="1" style="stop-color:#F3D86A"/>
	</linearGradient>
	<circle style="fill:url(#SVGID_00000058581509520790134850000005990726062242899852_);" cx="701.22" cy="579.18" r="120.04"/>
	
		<linearGradient id="SVGID_00000110451323633700046970000005023609249071751357_" gradientUnits="userSpaceOnUse" x1="698.582" y1="495.4527" x2="698.582" y2="661.5473">
		<stop  offset="0" style="stop-color:#EFE7C5"/>
		<stop  offset="0.4458" style="stop-color:#EFE7C5"/>
		<stop  offset="1" style="stop-color:#F3D96F"/>
	</linearGradient>
	<circle style="fill:url(#SVGID_00000110451323633700046970000005023609249071751357_);" cx="698.58" cy="578.5" r="83.05"/>
	
		<linearGradient id="SVGID_00000078009165290227461950000014970331939841981117_" gradientUnits="userSpaceOnUse" x1="698.7589" y1="638.6259" x2="698.7589" y2="518.501">
		<stop  offset="0" style="stop-color:#F3D86A"/>
		<stop  offset="1" style="stop-color:#F0DF9B"/>
	</linearGradient>
	<circle style="fill:url(#SVGID_00000078009165290227461950000014970331939841981117_);" cx="698.76" cy="578.56" r="60.06"/>
</g>
<path class="st6" d="M368.3,551.87c2.43-0.22,37.23-3.07,56,12.51c21.44,17.81,1.9,43.02,1,44.13
	c-24.81,30.84-99.28,32.93-123,33.59c-74.34,2.08-83.15-18.83-154-13.17c-37.69,3.01-51.96,10.26-89,7.9
	c-34.99-2.23-62.45-11.27-80-18.44c-91.42,34.54-179.8,27.2-207-0.66c-16.38-16.77-10.54-40.95-1-55.98
	c22.81-35.94,81.95-43.51,90.87-44.55c42.69-4.97,76.35,6.3,87.13,10.3c3.08-3.97,73.65-91.48,203-94.19
	c58.48-1.22,102.65,15.44,115,20.42C347.13,485.94,365.28,541.74,368.3,551.87z"/>
<path class="st6" d="M1383,571.62c2.43-0.22,37.23-3.07,56,12.51c21.44,17.81,1.9,43.02,1,44.13c-24.81,30.84-99.28,32.93-123,33.59
	c-74.34,2.08-83.15-18.83-154-13.17c-37.69,3.01-51.96,10.26-89,7.9c-34.99-2.23-62.45-11.27-80-18.44
	c-91.42,34.54-179.8,27.2-207-0.66c-16.38-16.77-10.54-40.95-1-55.98c22.81-35.94,81.95-43.51,90.87-44.55
	c42.69-4.97,76.35,6.3,87.13,10.3c3.08-3.97,73.65-91.48,203-94.19c58.48-1.22,102.65,15.44,115,20.42
	C1361.83,505.69,1379.98,561.49,1383,571.62z"/>
<path class="st7" d="M-6.48,768V627.43c204.78-85.31,342.4-76.8,430.25-53.24c96.34,25.84,139.9,71.7,244.65,66.88
	c114.66-5.27,131.99-63.41,241.72-61.2c120.81,2.43,141.1,73.73,233.86,55.9c79.22-15.22,120.13-77.94,185.57-61.59
	c19.73,4.93,33.95,15.11,42.91,22.99V767.1L-6.48,768z"/>
<path class="st8" d="M-3.96,780V675.19c204.78-63.6,342.4-57.26,430.25-39.69c96.34,19.27,139.9,53.46,244.65,49.87
	c114.66-3.93,131.99-47.28,241.72-45.63c120.81,1.81,141.1,54.97,233.86,41.68c79.22-11.35,120.13-58.11,185.57-45.92
	c19.73,3.67,33.95,11.27,42.91,17.14v126.69L-3.96,780z"/>
<path class="st9" d="M-8,792.72c1.68-20.14,3.36-40.27,5.05-60.41c140.2-60.22,247.95-66.25,317.99-61.82
	c172.4,10.91,235,92.72,381.59,71.76c101.92-14.57,122.45-61.38,215.02-54.71c94.59,6.81,103.71,57.89,186.76,56.13
	c90.39-1.91,132.98-63.54,220.07-51.16c25.93,3.69,45.23,12.43,56.53,18.47c-1.35,27-2.69,54-4.04,81L-8,792.72z"/>
<path class="st10" d="M797.9-22c-0.47,1.75-6.35,24.72,7.92,39.41c12.73,13.11,36.74,14.72,56.02,1.23
	c1.65,3.01,20.09,35.28,58.12,39.27c31.34,3.29,53.21-15.03,56.93-18.25l0,0c5.62,9.43,21.83,33.68,52.52,44.72
	c32.91,11.83,85.42,9.54,106.93-27.98c18.03-31.45,9.77-79.83-21.76-98.07c-20.64-11.94-43.65-6.56-51.27-4.42
	c-1.16-3.75-17.3-52.96-66.68-66.83c-47.16-13.24-84.84,17.3-93.63,25c-17.95,15.73-26.5,33.91-30.41,44.17
	c-17.87-12.5-40.06-14.09-55.99-3.99C802.75-38.96,798.57-24.46,797.9-22z"/>
<path class="st10" d="M1056.34,144.48c-0.25,0.9-3.28,12.78,4.09,20.37c6.58,6.77,18.99,7.6,28.95,0.64
	c0.85,1.56,10.38,18.23,30.03,20.29c16.2,1.7,27.5-7.76,29.42-9.43l0,0c2.9,4.87,11.28,17.41,27.14,23.11
	c17.01,6.12,44.15,4.93,55.26-14.46c9.32-16.26,5.05-41.26-11.25-50.68c-10.67-6.17-22.56-3.39-26.5-2.28
	c-0.6-1.94-8.94-27.37-34.46-34.54c-24.37-6.84-43.84,8.94-48.39,12.92c-9.28,8.13-13.69,17.52-15.72,22.83
	c-9.24-6.46-20.7-7.28-28.93-2.06C1058.84,135.71,1056.68,143.21,1056.34,144.48z"/>
<path class="st11" d="M1665.78,264.37c0.76,2.8,10.19,39.68-12.72,63.27c-20.44,21.04-58.98,23.62-89.93,1.98
	c-2.65,4.83-32.25,56.63-93.29,63.03c-50.31,5.28-85.41-24.12-91.39-29.29l0,0c-9.02,15.14-35.04,54.06-84.31,71.78
	c-52.82,18.99-137.12,15.32-171.64-44.91c-28.94-50.49-15.68-128.15,34.93-157.43c33.13-19.17,70.06-10.53,82.3-7.09
	c1.86-6.01,27.76-85.02,107.04-107.28c75.7-21.26,136.18,27.77,150.29,40.14c28.82,25.24,42.53,54.43,48.82,70.9
	c28.69-20.07,64.3-22.62,89.87-6.41C1658.01,237.16,1664.71,260.43,1665.78,264.37z"/>
<path class="st10" d="M403.81,91.4c0.87,3.2,11.62,45.27-14.51,72.17c-23.32,24-67.27,26.94-102.58,2.26
	c-3.02,5.51-36.79,64.6-106.41,71.9c-57.38,6.02-97.43-27.51-104.24-33.41l0,0c-10.29,17.26-39.97,61.67-96.17,81.88
	c-60.25,21.67-156.41,17.47-195.78-51.23c-33.01-57.59-17.89-146.18,39.85-179.57c37.8-21.86,79.91-12.01,93.88-8.09
	c2.12-6.86,31.67-96.98,122.1-122.37C126.29-99.33,195.28-43.4,211.38-29.3c32.87,28.79,48.52,62.09,55.68,80.87
	c32.73-22.89,73.35-25.81,102.51-7.31C394.94,60.35,402.59,86.9,403.81,91.4z"/>
<path class="st12" d="M465.53,278.45c0.41,1.52,5.52,21.49-6.89,34.26c-11.07,11.4-31.94,12.79-48.7,1.07
	c-1.44,2.62-17.46,30.67-50.52,34.13c-27.24,2.86-46.25-13.06-49.49-15.86l0,0c-4.88,8.2-18.97,29.28-45.65,38.87
	c-28.6,10.29-74.25,8.29-92.94-24.32c-15.67-27.34-8.49-69.39,18.92-85.25c17.94-10.38,37.94-5.7,44.57-3.84
	c1.01-3.26,15.03-46.04,57.96-58.09c40.99-11.51,73.74,15.04,81.39,21.73c15.61,13.67,23.03,29.48,26.44,38.39
	c15.54-10.87,34.82-12.25,48.67-3.47C461.32,263.71,464.95,276.31,465.53,278.45z"/>
<path class="st10" d="M1457.8,15.31c0.39,1.45,5.26,20.5-6.57,32.69c-10.56,10.87-30.47,12.2-46.46,1.02
	c-1.37,2.5-16.66,29.26-48.2,32.57c-25.99,2.73-44.13-12.46-47.22-15.13l0,0c-4.66,7.82-18.1,27.93-43.56,37.09
	c-27.29,9.81-70.85,7.91-88.68-23.21c-14.95-26.09-8.1-66.21,18.05-81.34c17.12-9.9,36.2-5.44,42.52-3.66
	c0.96-3.11,14.34-43.93,55.31-55.43c39.11-10.98,70.36,14.35,77.66,20.74c14.89,13.04,21.98,28.12,25.22,36.63
	c14.82-10.37,33.22-11.69,46.43-3.31C1453.78,1.25,1457.25,13.27,1457.8,15.31z"/>
<linearGradient id="SVGID_00000130648315511295407990000006264982620516934334_" gradientUnits="userSpaceOnUse" x1="962" y1="908" x2="962" y2="908">
	<stop  offset="0.3531" style="stop-color:#E8F1F3"/>
	<stop  offset="1" style="stop-color:#BCD5DB"/>
</linearGradient>
<path style="fill:url(#SVGID_00000130648315511295407990000006264982620516934334_);" d="M962,908"/>
<linearGradient id="SVGID_00000130625256514620470020000012238424435790395009_" gradientUnits="userSpaceOnUse" x1="643" y1="836" x2="643" y2="836">
	<stop  offset="0" style="stop-color:#E8F1F3"/>
	<stop  offset="0.1615" style="stop-color:#E5EFF1"/>
	<stop  offset="0.4385" style="stop-color:#BCD5DB"/>
	<stop  offset="0.4966" style="stop-color:#BCD5DB"/>
	<stop  offset="0.9659" style="stop-color:#ABCBD2"/>
</linearGradient>
<path style="fill:url(#SVGID_00000130625256514620470020000012238424435790395009_);" d="M643,836"/>
<linearGradient id="SVGID_00000183242610888561926780000001710736153126410418_" gradientUnits="userSpaceOnUse" x1="1026" y1="856" x2="1026" y2="856">
	<stop  offset="0" style="stop-color:#E8F1F3"/>
	<stop  offset="0.1615" style="stop-color:#E5EFF1"/>
	<stop  offset="0.4385" style="stop-color:#BCD5DB"/>
	<stop  offset="0.4966" style="stop-color:#BCD5DB"/>
	<stop  offset="0.9659" style="stop-color:#ABCBD2"/>
</linearGradient>
<path style="fill:url(#SVGID_00000183242610888561926780000001710736153126410418_);" d="M1026,856"/>
<linearGradient id="SVGID_00000156572357552758235320000012507276972821231790_" gradientUnits="userSpaceOnUse" x1="566.9761" y1="607.7818" x2="566.9761" y2="793.0132">
	<stop  offset="0" style="stop-color:#E8F1F3"/>
	<stop  offset="2.077838e-07" style="stop-color:#D5E5E9"/>
	<stop  offset="0.4966" style="stop-color:#BCD5DB"/>
	<stop  offset="0.9659" style="stop-color:#ABCBD2"/>
</linearGradient>
<path style="fill:url(#SVGID_00000156572357552758235320000012507276972821231790_);" d="M355.03,785.09
	c3.33-16.36,6.67-32.72,10-49.08c14.78-19.51,37.85-42.95,68.56-45.99c48.77-4.82,65.79,52.84,128.73,58.75
	c43.38,4.08,86.11-17.91,105.71-46.77c5.09-7.49,18.18-26.76,12-47c-0.81-2.67-4.66-14.17-16-21c-13.66-8.22-32.58-6.27-48,5
	c34.86-35.85,89-40.97,125.6-14.67c31.97,22.97,43.21,65.14,34.38,98.48c-10.61,40.06-47.71,69.06-91.01,70.19
	C575.01,790.37,465.02,787.73,355.03,785.09z"/>
<linearGradient id="SVGID_00000043440725379982506020000005341281594043067806_" gradientUnits="userSpaceOnUse" x1="1423.5902" y1="623.1249" x2="1423.5902" y2="808.3563">
	<stop  offset="0" style="stop-color:#E8F1F3"/>
	<stop  offset="0.1615" style="stop-color:#E5EFF1"/>
	<stop  offset="0.4385" style="stop-color:#BCD5DB"/>
	<stop  offset="0.4966" style="stop-color:#BCD5DB"/>
	<stop  offset="0.9659" style="stop-color:#ABCBD2"/>
</linearGradient>
<path style="fill:url(#SVGID_00000043440725379982506020000005341281594043067806_);" d="M1211.64,800.43
	c3.33-16.36,6.67-32.72,10-49.08c14.78-19.51,37.85-42.95,68.56-45.99c48.77-4.82,65.79,52.84,128.73,58.75
	c43.38,4.08,86.11-17.91,105.71-46.77c5.09-7.49,18.18-26.76,12-47c-0.81-2.67-4.66-14.17-16-21c-13.66-8.22-32.58-6.27-48,5
	c34.86-35.85,89-40.97,125.6-14.67c31.97,22.97,43.21,65.14,34.38,98.48c-10.61,40.06-47.71,69.06-91.01,70.19
	C1431.62,805.72,1321.63,803.08,1211.64,800.43z"/>
<path class="st18" d="M731,873"/>
<g>
	
		<linearGradient id="SVGID_00000031926197452597859970000000848982656956369544_" gradientUnits="userSpaceOnUse" x1="293.2276" y1="607.3164" x2="293.2276" y2="792.5478">
		<stop  offset="0" style="stop-color:#E8F1F3"/>
		<stop  offset="2.077838e-07" style="stop-color:#D5E5E9"/>
		<stop  offset="0.4966" style="stop-color:#BCD5DB"/>
		<stop  offset="0.9659" style="stop-color:#ABCBD2"/>
	</linearGradient>
	<path style="fill:url(#SVGID_00000031926197452597859970000000848982656956369544_);" d="M81.28,784.63
		c3.33-16.36,6.67-32.72,10-49.08c14.78-19.51,37.85-42.95,68.56-45.99c48.77-4.82,65.79,52.84,128.73,58.75
		c43.38,4.08,86.11-17.91,105.71-46.77c5.09-7.49,18.18-26.76,12-47c-0.81-2.67-4.66-14.17-16-21c-13.66-8.22-32.58-6.27-48,5
		c34.86-35.85,89-40.97,125.6-14.67c31.97,22.97,43.21,65.14,34.38,98.48c-10.61,40.06-47.71,69.06-91.01,70.19
		C301.26,789.91,191.27,787.27,81.28,784.63z"/>
	<path class="st18" d="M353.69,697.95c-0.75-0.8-1.81-1.99-2.91-3.51c-1.51-2.1-3.74-5.27-4.36-9.37c-0.41-2.75,0.49-2.39,0-4.69
		c-1.1-5.2-5.48-7.31-4.36-9.37c0.95-1.74,4.3-0.65,5.81-2.34c2.8-3.14-6.79-9.03-5.81-17.57c0.41-3.56,2.6-7.11,4.4-7.1
		c2.09,0.02,2.89,4.84,4.32,4.75c2.14-0.13,0.06-11.02,7.26-21.08c1.06-1.48,3.32-4.34,7.26-7.03c3.48-2.38,7.28-4.97,11.62-4.69
		c6.93,0.45,9.94,7.89,13.08,7.03c2.6-0.72,0.42-5.78,4.36-9.37c3.5-3.19,11.03-4.47,15.98-2.34c8.08,3.47,6.79,14.95,11.62,15.23
		c1.96,0.11,3.71-1.68,4.36-2.34c3.08-3.15,0.87-6.37,2.91-8.2c2.43-2.18,9.9-1.42,14.53,1.17c14.05,7.85,5.77,34.52,10.17,35.14
		c2.86,0.4,4.52-10.99,13.08-12.88c7.74-1.71,16.52,5.41,20.34,9.37c5.51,5.71,5.4,12.41,5.81,21.08c0.51,10.68-1.56,18.44,0,18.74
		c1.4,0.27,3.56-7.33,5.81-7.03c2.69,0.36,3.18,11.85,3.28,13.98c0.37,8.6-0.62,15.65-2,23c-1.22,6.5-3.09,15.05-6,25
		c7.13-17.42,9.47-24.35,10-27c0.71-3.52,1-5,1-5c0.47-2.41,0.63-3.35,1-5c0.43-1.89,0.78-3.16,1-4c0,0,0.97-3.68,1.89-9.27
		c0.65-3.93,2.04-12.3,0.16-22.32c-0.62-3.31-1.6-6.82-3.06-10.47c-5.52-13.75-15.28-22.43-21.79-28.11
		c-10.57-9.21-20.89-14.31-27.6-17.57c-9.42-4.57-18.3-8.88-31.53-11.04c-4.01-0.65-16.25-2.38-31.68,0
		c-8.56,1.32-28.18,4.35-42.85,18.07c-9.83,9.19-12.84,18.88-14.53,24.6c-1.82,6.16-4.81,16.87,0,29.28
		c4.14,10.67,11.77,17.52,14.53,19.91C351.95,696.63,352.97,697.42,353.69,697.95z"/>
</g>
<g>
	
		<linearGradient id="SVGID_00000170245627312152034750000007149713090237355152_" gradientUnits="userSpaceOnUse" x1="14.0786" y1="607.3164" x2="14.0786" y2="792.5478">
		<stop  offset="0" style="stop-color:#E8F1F3"/>
		<stop  offset="2.077838e-07" style="stop-color:#D5E5E9"/>
		<stop  offset="0.4966" style="stop-color:#BCD5DB"/>
		<stop  offset="0.9659" style="stop-color:#ABCBD2"/>
	</linearGradient>
	<path style="fill:url(#SVGID_00000170245627312152034750000007149713090237355152_);" d="M-197.87,784.63
		c3.33-16.36,6.67-32.72,10-49.08c14.78-19.51,37.85-42.95,68.56-45.99c48.77-4.82,65.79,52.84,128.73,58.75
		c43.38,4.08,86.11-17.91,105.71-46.77c5.09-7.49,18.18-26.76,12-47c-0.81-2.67-4.66-14.17-16-21c-13.66-8.22-32.58-6.27-48,5
		c34.86-35.85,89-40.97,125.6-14.67c31.97,22.97,43.21,65.14,34.38,98.48c-10.61,40.06-47.71,69.06-91.01,70.19
		C22.11,789.91-87.88,787.27-197.87,784.63z"/>
	<path class="st18" d="M74.54,697.95c-0.75-0.8-1.81-1.99-2.91-3.51c-1.51-2.1-3.74-5.27-4.36-9.37c-0.41-2.75,0.49-2.39,0-4.69
		c-1.1-5.2-5.48-7.31-4.36-9.37c0.95-1.74,4.3-0.65,5.81-2.34c2.8-3.14-6.79-9.03-5.81-17.57c0.41-3.56,2.6-7.11,4.4-7.1
		c2.09,0.02,2.89,4.84,4.32,4.75c2.14-0.13,0.06-11.02,7.26-21.08c1.06-1.48,3.32-4.34,7.26-7.03c3.48-2.38,7.28-4.97,11.62-4.69
		c6.93,0.45,9.94,7.89,13.08,7.03c2.6-0.72,0.42-5.78,4.36-9.37c3.5-3.19,11.03-4.47,15.98-2.34c8.08,3.47,6.79,14.95,11.62,15.23
		c1.96,0.11,3.71-1.68,4.36-2.34c3.08-3.15,0.87-6.37,2.91-8.2c2.43-2.18,9.9-1.42,14.53,1.17c14.05,7.85,5.77,34.52,10.17,35.14
		c2.86,0.4,4.52-10.99,13.08-12.88c7.74-1.71,16.52,5.41,20.34,9.37c5.51,5.71,5.4,12.41,5.81,21.08c0.51,10.68-1.56,18.44,0,18.74
		c1.4,0.27,3.56-7.33,5.81-7.03c2.69,0.36,3.18,11.85,3.28,13.98c0.37,8.6-0.62,15.65-2,23c-1.22,6.5-3.09,15.05-6,25
		c7.13-17.42,9.47-24.35,10-27c0.71-3.52,1-5,1-5c0.47-2.41,0.63-3.35,1-5c0.43-1.89,0.78-3.16,1-4c0,0,0.97-3.68,1.89-9.27
		c0.65-3.93,2.04-12.3,0.16-22.32c-0.62-3.31-1.6-6.82-3.06-10.47c-5.52-13.75-15.28-22.43-21.79-28.11
		c-10.57-9.21-20.89-14.31-27.6-17.57c-9.42-4.57-18.3-8.88-31.53-11.04c-4.01-0.65-16.25-2.38-31.68,0
		c-8.56,1.32-28.18,4.35-42.85,18.07c-9.83,9.19-12.84,18.88-14.53,24.6c-1.82,6.16-4.81,16.87,0,29.28
		c4.14,10.67,11.77,17.52,14.53,19.91C72.8,696.63,73.82,697.42,74.54,697.95z"/>
</g>
<linearGradient id="SVGID_00000072255013189032549610000013929892960610549935_" gradientUnits="userSpaceOnUse" x1="843.951" y1="607.6994" x2="843.951" y2="792.9308">
	<stop  offset="0" style="stop-color:#E8F1F3"/>
	<stop  offset="2.077838e-07" style="stop-color:#D5E5E9"/>
	<stop  offset="0.4966" style="stop-color:#BCD5DB"/>
	<stop  offset="0.9659" style="stop-color:#ABCBD2"/>
</linearGradient>
<path style="fill:url(#SVGID_00000072255013189032549610000013929892960610549935_);" d="M632,785.01
	c3.33-16.36,6.67-32.72,10-49.08c14.78-19.51,37.85-42.95,68.56-45.99c48.77-4.82,65.79,52.84,128.73,58.75
	c43.38,4.08,86.11-17.91,105.71-46.77c5.09-7.49,18.18-26.76,12-47c-0.81-2.67-4.66-14.17-16-21c-13.66-8.22-32.58-6.27-48,5
	c34.86-35.85,89-40.97,125.6-14.67c31.97,22.97,43.21,65.14,34.38,98.48c-10.61,40.06-47.71,69.06-91.01,70.19
	C851.98,790.29,741.99,787.65,632,785.01z"/>
<g>
	
		<linearGradient id="SVGID_00000121271281971288561120000016570913918969414322_" gradientUnits="userSpaceOnUse" x1="1135.9509" y1="609.6994" x2="1135.9509" y2="794.9308">
		<stop  offset="0" style="stop-color:#E8F1F3"/>
		<stop  offset="2.077838e-07" style="stop-color:#D5E5E9"/>
		<stop  offset="0.4966" style="stop-color:#BCD5DB"/>
		<stop  offset="0.9659" style="stop-color:#ABCBD2"/>
	</linearGradient>
	<path style="fill:url(#SVGID_00000121271281971288561120000016570913918969414322_);" d="M924,787.01
		c3.33-16.36,6.67-32.72,10-49.08c14.78-19.51,37.85-42.95,68.56-45.99c48.77-4.82,65.79,52.84,128.73,58.75
		c43.38,4.08,86.11-17.91,105.71-46.77c5.09-7.49,18.18-26.76,12-47c-0.81-2.67-4.66-14.17-16-21c-13.66-8.22-32.58-6.27-48,5
		c34.86-35.85,89-40.97,125.6-14.67c31.97,22.97,43.21,65.14,34.38,98.48c-10.61,40.06-47.71,69.06-91.01,70.19
		C1143.98,792.29,1033.99,789.65,924,787.01z"/>
	<path class="st18" d="M1196.41,700.34c-0.75-0.8-1.81-1.99-2.91-3.51c-1.51-2.1-3.74-5.27-4.36-9.37c-0.41-2.75,0.49-2.39,0-4.69
		c-1.1-5.2-5.48-7.31-4.36-9.37c0.95-1.74,4.3-0.65,5.81-2.34c2.8-3.14-6.79-9.03-5.81-17.57c0.41-3.56,2.6-7.11,4.4-7.1
		c2.09,0.02,2.89,4.84,4.32,4.75c2.14-0.13,0.06-11.02,7.26-21.08c1.06-1.48,3.32-4.34,7.26-7.03c3.48-2.38,7.28-4.97,11.62-4.69
		c6.93,0.45,9.94,7.89,13.08,7.03c2.6-0.72,0.42-5.78,4.36-9.37c3.5-3.19,11.03-4.47,15.98-2.34c8.08,3.47,6.79,14.95,11.62,15.23
		c1.96,0.11,3.71-1.68,4.36-2.34c3.08-3.15,0.87-6.37,2.91-8.2c2.43-2.18,9.9-1.42,14.53,1.17c14.05,7.85,5.77,34.52,10.17,35.14
		c2.86,0.4,4.52-10.99,13.08-12.88c7.74-1.71,16.52,5.41,20.34,9.37c5.51,5.71,5.4,12.41,5.81,21.08c0.51,10.68-1.56,18.44,0,18.74
		c1.4,0.27,3.56-7.33,5.81-7.03c2.69,0.36,3.18,11.85,3.28,13.98c0.37,8.6-0.62,15.65-2,23c-1.22,6.5-3.09,15.05-6,25
		c7.13-17.42,9.47-24.35,10-27c0.71-3.52,1-5,1-5c0.47-2.41,0.63-3.35,1-5c0.43-1.89,0.78-3.16,1-4c0,0,0.97-3.68,1.89-9.27
		c0.65-3.93,2.04-12.3,0.16-22.32c-0.62-3.31-1.6-6.82-3.06-10.47c-5.52-13.75-15.28-22.43-21.79-28.11
		c-10.57-9.21-20.89-14.31-27.6-17.57c-9.42-4.57-18.3-8.88-31.53-11.04c-4.01-0.65-16.25-2.38-31.68,0
		c-8.56,1.32-28.18,4.35-42.85,18.07c-9.83,9.19-12.84,18.88-14.53,24.6c-1.82,6.16-4.81,16.87,0,29.28
		c4.14,10.67,11.77,17.52,14.53,19.91C1194.68,699.01,1195.69,699.8,1196.41,700.34z"/>
</g>
<path class="st6" d="M792.47,513.41c0.12,0.46,1.67,6.5-2.08,10.36c-3.35,3.45-9.66,3.87-14.73,0.32
	c-0.43,0.79-5.28,9.28-15.28,10.33c-8.24,0.86-13.99-3.95-14.97-4.8l0,0c-1.48,2.48-5.74,8.86-13.81,11.76
	c-8.65,3.11-22.46,2.51-28.12-7.36c-4.74-8.27-2.57-20.99,5.72-25.79c5.43-3.14,11.48-1.73,13.48-1.16
	c0.3-0.98,4.55-13.93,17.54-17.58c12.4-3.48,22.31,4.55,24.62,6.58c4.72,4.14,6.97,8.92,8,11.62c4.7-3.29,10.53-3.71,14.72-1.05
	C791.2,508.96,792.3,512.77,792.47,513.41z"/>
<path class="st23" d="M132,661c1.44,21.95-1.85,30.58-5.43,34.24c-0.38,0.38-1.32,1.29-2.57,2.76c-4.61,5.47-6.84,11.09-8,15
	c3.67-2.2,9.86-6.67,14.2-14.55c4.39-7.99,4.69-15.34,4.8-19.45C135.21,671.05,133.39,664.74,132,661z"/>
<path class="st23" d="M131.07,652.84c11.35,28.15,9.96,39.88,5.93,45.16c-1.05,1.37-4.35,5.04-6,11c-1.98,7.17,0.89,8.79-1,13
	c-3.07,6.81-11.61,4.78-23,14c-3.72,3.01-3.7,3.95-7,7c-5.35,4.94-14.22,10.63-29.51,13.15c5.99,0.32,27.13,0.7,46.51-14.15
	c4.09-3.13,17.13-13.41,23-32C149.08,681.26,133.48,656.53,131.07,652.84z"/>
<path class="st23" d="M151.32,672.67c11.35,28.15,9.96,39.88,5.93,45.16c-1.05,1.37-4.35,5.04-6,11c-1.98,7.17,0.89,8.79-1,13
	c-3.07,6.81-11.61,4.78-23,14c-3.72,3.01-3.7,3.95-7,7c-5.35,4.94-14.22,10.63-29.51,13.15c5.99,0.32,27.13,0.7,46.51-14.15
	c4.09-3.13,17.13-13.41,23-32C169.34,701.09,153.74,676.37,151.32,672.67z"/>
<path class="st6" d="M-47,688"/>
<path class="st23" d="M413.21,659.39c1.44,21.95-1.85,30.58-5.43,34.24c-0.38,0.38-1.32,1.29-2.57,2.76c-4.61,5.47-6.84,11.09-8,15
	c3.67-2.2,9.86-6.67,14.2-14.55c4.39-7.99,4.69-15.34,4.8-19.45C416.43,669.44,414.6,663.12,413.21,659.39z"/>
<path class="st23" d="M412.28,651.22c11.35,28.15,9.96,39.88,5.93,45.16c-1.05,1.37-4.35,5.04-6,11c-1.98,7.17,0.89,8.79-1,13
	c-3.07,6.81-11.61,4.78-23,14c-3.72,3.01-3.7,3.95-7,7c-5.35,4.94-14.22,10.63-29.51,13.15c5.99,0.32,27.13,0.7,46.51-14.15
	c4.09-3.13,17.13-13.41,23-32C430.29,679.64,414.7,654.92,412.28,651.22z"/>
<path class="st23" d="M432.54,671.06c11.35,28.15,9.96,39.88,5.93,45.16c-1.05,1.37-4.35,5.04-6,11c-1.98,7.17,0.89,8.79-1,13
	c-3.07,6.81-11.61,4.78-23,14c-3.72,3.01-3.7,3.95-7,7c-5.35,4.94-14.22,10.63-29.51,13.15c5.99,0.32,27.13,0.7,46.51-14.15
	c4.09-3.13,17.13-13.41,23-32C450.55,699.48,434.95,674.75,432.54,671.06z"/>
<path class="st23" d="M686.21,661.39c1.44,21.95-1.85,30.58-5.43,34.24c-0.38,0.38-1.32,1.29-2.57,2.76c-4.61,5.47-6.84,11.09-8,15
	c3.67-2.2,9.86-6.67,14.2-14.55c4.39-7.99,4.69-15.34,4.8-19.45C689.43,671.44,687.6,665.12,686.21,661.39z"/>
<path class="st23" d="M685.28,653.22c11.35,28.15,9.96,39.88,5.93,45.16c-1.05,1.37-4.35,5.04-6,11c-1.98,7.17,0.89,8.79-1,13
	c-3.07,6.81-11.61,4.78-23,14c-3.72,3.01-3.7,3.95-7,7c-5.35,4.94-14.22,10.63-29.51,13.15c5.99,0.32,27.13,0.7,46.51-14.15
	c4.09-3.13,17.13-13.41,23-32C703.29,681.64,687.7,656.92,685.28,653.22z"/>
<path class="st23" d="M705.54,673.06c11.35,28.15,9.96,39.88,5.93,45.16c-1.05,1.37-4.35,5.04-6,11c-1.98,7.17,0.89,8.79-1,13
	c-3.07,6.81-11.61,4.78-23,14c-3.72,3.01-3.7,3.95-7,7c-5.35,4.94-14.22,10.63-29.51,13.15c5.99,0.32,27.13,0.7,46.51-14.15
	c4.09-3.13,17.13-13.41,23-32C723.55,701.48,707.95,676.75,705.54,673.06z"/>
<path class="st23" d="M964.23,660.39c1.44,21.95-1.85,30.58-5.43,34.24c-0.38,0.38-1.32,1.29-2.57,2.76c-4.61,5.47-6.84,11.09-8,15
	c3.67-2.2,9.86-6.67,14.2-14.55c4.39-7.99,4.69-15.34,4.8-19.45C967.45,670.44,965.62,664.12,964.23,660.39z"/>
<path class="st23" d="M963.3,652.22c11.35,28.15,9.96,39.88,5.93,45.16c-1.05,1.37-4.35,5.04-6,11c-1.98,7.17,0.89,8.79-1,13
	c-3.07,6.81-11.61,4.78-23,14c-3.72,3.01-3.7,3.95-7,7c-5.35,4.94-14.22,10.63-29.51,13.15c5.99,0.32,27.13,0.7,46.51-14.15
	c4.09-3.13,17.13-13.41,23-32C981.32,680.64,965.72,655.92,963.3,652.22z"/>
<path class="st23" d="M983.56,672.06c11.35,28.15,9.96,39.88,5.93,45.16c-1.05,1.37-4.35,5.04-6,11c-1.98,7.17,0.89,8.79-1,13
	c-3.07,6.81-11.61,4.78-23,14c-3.72,3.01-3.7,3.95-7,7c-5.35,4.94-14.22,10.63-29.51,13.15c5.99,0.32,27.13,0.7,46.51-14.15
	c4.09-3.13,17.13-13.41,23-32C1001.57,700.48,985.97,675.75,983.56,672.06z"/>
<path class="st23" d="M1257.23,660.39c1.44,21.95-1.85,30.58-5.43,34.24c-0.38,0.38-1.32,1.29-2.57,2.76c-4.61,5.47-6.84,11.09-8,15
	c3.67-2.2,9.86-6.67,14.2-14.55c4.39-7.99,4.69-15.34,4.8-19.45C1260.45,670.44,1258.62,664.12,1257.23,660.39z"/>
<path class="st23" d="M1256.3,652.22c11.35,28.15,9.96,39.88,5.93,45.16c-1.05,1.37-4.35,5.04-6,11c-1.98,7.17,0.89,8.79-1,13
	c-3.07,6.81-11.61,4.78-23,14c-3.72,3.01-3.7,3.95-7,7c-5.35,4.94-14.22,10.63-29.51,13.15c5.99,0.32,27.13,0.7,46.51-14.15
	c4.09-3.13,17.13-13.41,23-32C1274.32,680.64,1258.72,655.92,1256.3,652.22z"/>
<path class="st23" d="M1276.56,672.06c11.35,28.15,9.96,39.88,5.93,45.16c-1.05,1.37-4.35,5.04-6,11c-1.98,7.17,0.89,8.79-1,13
	c-3.07,6.81-11.61,4.78-23,14c-3.72,3.01-3.7,3.95-7,7c-5.35,4.94-14.22,10.63-29.51,13.15c5.99,0.32,27.13,0.7,46.51-14.15
	c4.09-3.13,17.13-13.41,23-32C1294.57,700.48,1278.97,675.75,1276.56,672.06z"/>
<path class="st18" d="M627.44,698.42c-0.75-0.8-1.81-1.99-2.91-3.51c-1.51-2.1-3.74-5.27-4.36-9.37c-0.41-2.75,0.49-2.39,0-4.69
	c-1.1-5.2-5.48-7.31-4.36-9.37c0.95-1.74,4.3-0.65,5.81-2.34c2.8-3.14-6.79-9.03-5.81-17.57c0.41-3.56,2.6-7.11,4.4-7.1
	c2.09,0.02,2.89,4.84,4.32,4.75c2.14-0.13,0.06-11.02,7.26-21.08c1.06-1.48,3.32-4.34,7.26-7.03c3.48-2.38,7.28-4.97,11.62-4.69
	c6.93,0.45,9.94,7.89,13.08,7.03c2.6-0.72,0.42-5.78,4.36-9.37c3.5-3.19,11.03-4.47,15.98-2.34c8.08,3.47,6.79,14.95,11.62,15.23
	c1.96,0.11,3.71-1.68,4.36-2.34c3.08-3.15,0.87-6.37,2.91-8.2c2.43-2.18,9.9-1.42,14.53,1.17c14.05,7.85,5.77,34.52,10.17,35.14
	c2.86,0.4,4.52-10.99,13.08-12.88c7.74-1.71,16.52,5.41,20.34,9.37c5.51,5.71,5.4,12.41,5.81,21.08c0.51,10.68-1.56,18.44,0,18.74
	c1.4,0.27,3.56-7.33,5.81-7.03c2.69,0.36,3.18,11.85,3.28,13.98c0.37,8.6-0.62,15.65-2,23c-1.22,6.5-3.09,15.05-6,25
	c7.13-17.42,9.47-24.35,10-27c0.71-3.52,1-5,1-5c0.47-2.41,0.63-3.35,1-5c0.43-1.89,0.78-3.16,1-4c0,0,0.97-3.68,1.89-9.27
	c0.65-3.93,2.04-12.3,0.16-22.32c-0.62-3.31-1.6-6.82-3.06-10.47c-5.52-13.75-15.28-22.43-21.79-28.11
	c-10.57-9.21-20.89-14.31-27.6-17.57c-9.42-4.57-18.3-8.88-31.53-11.04c-4.01-0.65-16.25-2.38-31.68,0
	c-8.56,1.32-28.18,4.35-42.85,18.07c-9.83,9.19-12.84,18.88-14.53,24.6c-1.82,6.16-4.81,16.87,0,29.28
	c4.14,10.67,11.77,17.52,14.53,19.91C625.7,697.09,626.72,697.88,627.44,698.42z"/>
<path class="st18" d="M904.41,698.34c-0.75-0.8-1.81-1.99-2.91-3.51c-1.51-2.1-3.74-5.27-4.36-9.37c-0.41-2.75,0.49-2.39,0-4.69
	c-1.1-5.2-5.48-7.31-4.36-9.37c0.95-1.74,4.3-0.65,5.81-2.34c2.8-3.14-6.79-9.03-5.81-17.57c0.41-3.56,2.6-7.11,4.4-7.1
	c2.09,0.02,2.89,4.84,4.32,4.75c2.14-0.13,0.06-11.02,7.26-21.08c1.06-1.48,3.32-4.34,7.26-7.03c3.48-2.38,7.28-4.97,11.62-4.69
	c6.93,0.45,9.94,7.89,13.08,7.03c2.6-0.72,0.42-5.78,4.36-9.37c3.5-3.19,11.03-4.47,15.98-2.34c8.08,3.47,6.79,14.95,11.62,15.23
	c1.96,0.11,3.71-1.68,4.36-2.34c3.08-3.15,0.87-6.37,2.91-8.2c2.43-2.18,9.9-1.42,14.53,1.17c14.05,7.85,5.77,34.52,10.17,35.14
	c2.86,0.4,4.52-10.99,13.08-12.88c7.74-1.71,16.52,5.41,20.34,9.37c5.51,5.71,5.4,12.41,5.81,21.08c0.51,10.68-1.56,18.44,0,18.74
	c1.4,0.27,3.56-7.33,5.81-7.03c2.69,0.36,3.18,11.85,3.28,13.98c0.37,8.6-0.62,15.65-2,23c-1.22,6.5-3.09,15.05-6,25
	c7.13-17.42,9.47-24.35,10-27c0.71-3.52,1-5,1-5c0.47-2.41,0.63-3.35,1-5c0.43-1.89,0.78-3.16,1-4c0,0,0.97-3.68,1.89-9.27
	c0.65-3.93,2.04-12.3,0.16-22.32c-0.62-3.31-1.6-6.82-3.06-10.47c-5.52-13.75-15.28-22.43-21.79-28.11
	c-10.57-9.21-20.89-14.31-27.6-17.57c-9.42-4.57-18.3-8.88-31.53-11.04c-4.01-0.65-16.25-2.38-31.68,0
	c-8.56,1.32-28.18,4.35-42.85,18.07c-9.83,9.19-12.84,18.88-14.53,24.6c-1.82,6.16-4.81,16.87,0,29.28
	c4.14,10.67,11.77,17.52,14.53,19.91C902.68,697.01,903.69,697.8,904.41,698.34z"/>
<path class="st6" d="M170,569"/>
<path class="st24" d="M-58,485"/>
</svg>
